<svg xmlns="http://www.w3.org/2000/svg" xmlns:xlink="http://www.w3.org/1999/xlink" width="98" height="27" viewBox="0 0 98 27"><title>saba_blue</title><defs><path id="a" d="M.016.086h7.061v7.207H.016z"/><path id="c" d="M0 .019h25.379v25.379H0z"/></defs><g fill="none" fill-rule="evenodd"><path fill="#7E8693" d="M56.555 7.609h3.26V3.612h-3.26v3.997zm-5.887 0h3.211V3.612h-3.21v3.997zM48.026.969h14.432v7.475l-1.74 1.84h-10.05v3.846h12.61l-1.84 2.66H48.025V.97zM91.455 0l-3.011.735v.569h-5.535l-1.087 2.24h2.207l-1.521 2.994h13.077l1.354-1.288V3.846h-2.775v.568H86.47l.485-.87H97.71v-2.24h-6.254V0zm-8.58 7.107v9.816h2.693v-2.475h8.83v.602h-1.84l-1.238 1.873h5.77V7.107H82.876zm2.693 3.06h8.83v-.602h-8.83v.602zm0 2.442h8.83v-.602h-8.83v.602zM32.282 5.525l5.169-3.262-.019 8.741-1.666-.917.024-3.874z"/><path fill="#7E8693" d="M30.075 6.954l1.083-.707 2.382.467-1.799 1.157zM29.655 11.316l5.168-3.262-.018 8.74-1.667-.917.025-3.873z"/><path fill="#7E8693" d="M27.448 12.745l1.082-.707 2.383.467-1.799 1.157zM46.039 8.142h-2.693V2.123l2.693 2.023zM39.133 11.187h2.675V.952h-2.675z"/><path fill="#7E8693" d="M46.089 8.963h-2.76v2.14l-7.421 2.599v3.092l10.181-3.584zM69.664.568h-2.809l-2.424 7.743h1.454v8.495h2.593V6.572h-.736z"/><path fill="#7E8693" d="M76.387 2.558V.568h-2.675v1.99h-3.496l-1.504 2.508h5v6.389h-.753l-.82 2.625h1.573v2.726h2.675V14.08h1.12v-2.625h-1.12V5.066h4.331V2.558z"/><path fill="#7E8693" d="M69.38 7.823v9.004l2.592-.022V5.819zM77.884 16.783V5.819l2.592 2.041v8.923zM34.097 23.457a2.11 2.11 0 01-1.547-.641 2.111 2.111 0 01-.64-1.547c0-.604.213-1.12.64-1.547a2.11 2.11 0 011.547-.641h2.445v1.545h-2.445a.618.618 0 00-.455.188.62.62 0 00-.188.455c0 .178.062.33.188.455a.62.62 0 00.455.189h.772c.604 0 1.12.213 1.548.64.426.428.64.943.64 1.547a2.11 2.11 0 01-.64 1.547 2.11 2.11 0 01-1.548.64h-2.445v-1.544h2.445c.179 0 .33-.062.456-.187a.623.623 0 00.188-.456.624.624 0 00-.188-.456.621.621 0 00-.456-.187h-.772zM46.23 23.457v1.286h1.405c.178 0 .33-.062.455-.187a.622.622 0 00.188-.456.623.623 0 00-.188-.456.622.622 0 00-.455-.187h-1.406zm0-2.831v1.287h1.415c.179 0 .33-.063.455-.189a.622.622 0 00.188-.455.62.62 0 00-.188-.455.619.619 0 00-.455-.188h-1.416zm-1.545 5.662V19.08h2.96c.603 0 1.12.214 1.547.641.427.427.64.943.64 1.547 0 .546-.174 1.02-.524 1.42.342.399.514.869.514 1.411 0 .604-.213 1.12-.641 1.547-.427.427-.943.64-1.546.64h-2.95z"/><path fill="#7E8693" d="M38.082 24.088l2.776-5.03 3.947 7.206h-1.787l-1.736-3.2z"/><path fill="#7E8693" d="M36.912 26.264l.572-1.073 2.172-.694-.956 1.767zM50.904 24.088l2.777-5.03 3.947 7.206H55.84l-1.736-3.2z"/><path fill="#7E8693" d="M49.734 26.264l.572-1.073 2.172-.694-.956 1.767zM63.22 23.55a2.11 2.11 0 01-1.546-.642 2.11 2.11 0 01-.641-1.546c0-.604.214-1.12.64-1.547a2.11 2.11 0 011.548-.641h2.445v1.544H63.22a.618.618 0 00-.456.188.62.62 0 00-.188.456c0 .178.063.33.188.455a.62.62 0 00.456.188h.772c.603 0 1.12.213 1.547.64.427.428.64.944.64 1.548a2.11 2.11 0 01-.64 1.547c-.428.427-.944.64-1.547.64h-2.445v-1.544h2.445c.178 0 .33-.062.456-.188a.621.621 0 00.187-.455.623.623 0 00-.187-.456.622.622 0 00-.456-.188h-.772zM68.45 20.718v1.287h1.416a.62.62 0 00.456-.188.62.62 0 00.187-.455.621.621 0 00-.187-.456.62.62 0 00-.456-.188H68.45zm0 2.831v2.832h-1.544v-7.207h2.96c.603 0 1.12.214 1.547.64.427.428.64.944.64 1.548a2.11 2.11 0 01-.64 1.547 2.11 2.11 0 01-1.547.64H68.45zM82.255 20.718v1.287h1.416a.62.62 0 00.456-.188.62.62 0 00.187-.455.621.621 0 00-.187-.456.62.62 0 00-.456-.188h-1.416zm0 2.831v2.832h-1.544v-7.207h2.96c.603 0 1.12.214 1.547.64.427.428.64.944.64 1.548 0 .604-.212 1.119-.638 1.544-.171.172-.355.309-.55.412l1.487 3.063h-1.714l-1.375-2.832h-.813zM89.673 20.719v5.662h-1.544v-5.662h-1.545v-1.545h4.633v1.545zM94.13 23.55c-.604 0-1.12-.214-1.547-.642a2.109 2.109 0 01-.64-1.546c0-.604.213-1.12.64-1.547.428-.427.943-.641 1.547-.641h2.445v1.544H94.13a.62.62 0 00-.456.188.623.623 0 00-.187.456c0 .178.063.33.187.455a.621.621 0 00.456.188h.773c.603 0 1.12.213 1.547.64.426.428.64.944.64 1.548a2.11 2.11 0 01-.64 1.547 2.11 2.11 0 01-1.547.64h-2.446v-1.544h2.446a.62.62 0 00.455-.188.62.62 0 00.188-.455.622.622 0 00-.188-.456.62.62 0 00-.455-.188h-.773zM75.367 20.984l-1.683-.556a3.55 3.55 0 00-.566.865l1.473.493c.184-.342.456-.613.776-.802M74.45 23.424a1.798 1.798 0 01-.073-.285 2.023 2.023 0 01-.015-.655l-1.475-.494a3.71 3.71 0 00-.087.798c0 .08.007.157.01.235l1.688.56c-.021-.05-.032-.106-.049-.159"/><g transform="translate(72.93 19.098)"><mask id="b" fill="#fff"><use xlink:href="#a"/></mask><path fill="#7E8693" d="M6.022 1.142A3.473 3.473 0 0 0 3.473.086c-.791 0-1.49.227-2.097.673l.968.327 1.822.604a2.1 2.1 0 0 1-1.322 3.987L.115 4.772.03 4.743.028 4.74l-.012-.004c.164.558.467 1.06.91 1.502a3.471 3.471 0 0 0 2.547 1.055c.996 0 1.845-.352 2.549-1.055A3.47 3.47 0 0 0 7.077 3.69c0-.995-.352-1.845-1.055-2.548" mask="url(#b)"/></g><path fill="#7E8693" d="M12.393 22.467c.774.124 1.544.19 2.308.2a14.459 14.459 0 004.23-1.797c-6.064-.084-11.416-3.164-14.64-7.823a17.685 17.685 0 00.453 5.977 16.083 16.083 0 007.65 3.443M3.493 18.44a18.424 18.424 0 001.51 2.706c-.236-.62-.44-1.254-.608-1.904-.31-.255-.61-.522-.902-.801"/><path fill="#7E8693" d="M13.158 22.964a16.455 16.455 0 01-8.242-3.305 17.6 17.6 0 00.947 2.516 14.98 14.98 0 004.693.923c.886.03 1.755-.017 2.602-.134M4.241 18.595a18.097 18.097 0 01-.29-6.055 18.01 18.01 0 01-2.045-4.368c-.346 3.225.066 6.412 1.184 9.303.368.394.752.767 1.151 1.12M11.823 13.923l-1.279.003.003 1.171 1.28-.003c.161 0 .299-.058.413-.172a.562.562 0 00.17-.415c0-.162-.057-.3-.172-.414a.566.566 0 00-.415-.17"/><g transform="translate(0 .866)"><mask id="d" fill="#fff"><use xlink:href="#c"/></mask><path fill="#7E8693" d="M2.209 19.304a14.312 14.312 0 0 0 2.79 1.652 18.44 18.44 0 0 1-2.247-4.135A18.193 18.193 0 0 1 .33 13.528a12.314 12.314 0 0 1 1.717-7.155 17.6 17.6 0 0 0 1.987 4.695A18.07 18.07 0 0 1 9.444.753c.259-.07.52-.135.785-.189C7.08 3.34 4.918 7.211 4.357 11.578c3.164 4.836 8.628 8.037 14.827 8.037.112 0 .223-.002.336-.004 2.934-2.064 4.963-5.185 5.417-8.774.093.61.142 1.235.142 1.871 0 2.55-.775 4.922-2.1 6.894-1.08.232-2.193.37-3.334.4a14.696 14.696 0 0 1-3.419 1.75c2.363-.193 4.63-.912 6.687-2.055-.172.25-.353.494-.543.73-2.296 1.14-4.824 1.77-7.436 1.77l-.19-.003a15.378 15.378 0 0 1-4.202.43 15.409 15.409 0 0 1-4.353-.785 16.117 16.117 0 0 0 3.036 2.763c-.41-.12-.811-.259-1.202-.419-.409-.334-.805-.69-1.185-1.067.161.261.332.516.506.769a12.47 12.47 0 0 1-5.135-4.58zm12.81-5.585l1.246-2.257 1.69-3.061 4.048 7.255-1.567-.015-1.758-3.25-3.658 1.328zm-.527.973l1.915-.613-.843 1.558h-1.576l.504-.945zm1.99-6.76l-.844 1.558h-1.576l.505-.945 1.914-.613zm-1.388-.36L17.54 3.14 21.02 9.49h-1.576l-1.53-2.82-2.82.902zm-4.82-2.037a.574.574 0 0 0 .423.175h.716c.56 0 1.04.198 1.437.595.396.396.595.874.595 1.435 0 .56-.199 1.04-.595 1.437a1.958 1.958 0 0 1-1.437.594H9.144V8.338h2.27a.578.578 0 0 0 .422-.175.577.577 0 0 0 .175-.423.576.576 0 0 0-.175-.422.577.577 0 0 0-.423-.175h-.716c-.56 0-1.04-.198-1.436-.595a1.957 1.957 0 0 1-.595-1.436c0-.56.199-1.039.595-1.435a1.955 1.955 0 0 1 1.436-.595h2.27v1.433h-2.27a.575.575 0 0 0-.423.174.577.577 0 0 0-.174.423c0 .166.058.307.174.423zm3.542 8.103a1.92 1.92 0 0 1-.58 1.41 1.92 1.92 0 0 1-1.407.586l-2.684.006-.011-5.033h.027l1.377-.003.003 1.05 1.288-.002c.163 0 .3-.057.414-.172a.562.562 0 0 0 .17-.415c0-.133-.1-.357-.176-.457a3.021 3.021 0 0 0 1.225-.7c.196.308.356.764.357 1.154.001.496-.158.928-.475 1.294.313.361.47.789.472 1.282zM12.69.018C5.693.019 0 5.713 0 12.709c0 6.997 5.693 12.69 12.69 12.69 6.996 0 12.689-5.693 12.689-12.69 0-6.996-5.693-12.69-12.69-12.69z" mask="url(#d)"/></g></g></svg>