<svg xmlns="http://www.w3.org/2000/svg" width="104" height="26" viewBox="0 0 104 26"><title>logo_tc</title><path fill="#7E8693" fill-rule="nonzero" d="M12.75 9.8c1.25 1.7 5.5 1.75 5.5 1.75h2.45c-.1-.45-.2-.85-.35-1.25-1.35 0-4.5-.05-5.7-.75h5.4c-.2-.45-.45-.85-.7-1.25H13.5c-.1-.3-.15-.55-.15-.75h5.4c-.45-.45-.9-.9-1.45-1.25H8.25c-.55.35-1 .8-1.45 1.25h5.15c0 .2-.05.45-.1.75H6.2c-.25.4-.5.8-.7 1.25h5.4c-1.15.55-2.7.75-5.7.75-.15.4-.25.8-.3 1.25h2.2s4.25.1 5.65-1.75zm.65 2.55c-.15-.8-.15-1.4-.15-1.4h-1.2c.05.5.1.95.15 1.4H4.8c0 .2-.05.45-.05.65 0 4.35 3.5 7.9 7.85 8.05V19.8c-3.7-.25-5.35-2.45-6.05-4.2h3.55v.8H8.7v1.25h2.65v-3.3h-5.2c-.1-.45-.15-.75-.15-.75h6.45c.3 1.1.65 2 1.1 2.75-.3.05-.6.05-.95.05v1.25s.85.1 1.85-.1c1.45 1.65 3.05 1.95 3.1 1.95 1.1-.8 1.95-1.85 2.55-3.1h-1.45s-.35.75-1.4 1.65c-.55-.3-1.05-.65-1.45-1 .7-.4 1.3-1 1.6-2h-1.35s-.1.6-1.15 1c-.55-.8-.95-1.65-1.15-2.45h7.1c0-.2.05-.4.05-.65 0-.2 0-.45-.05-.65H13.4v.05zm12.4.15v-.15-.2-.1-.25-.05c0-.1 0-.2-.05-.25v-.05c0-.1 0-.2-.05-.3 0-.1-.05-.2-.05-.3 0-.1-.05-.2-.05-.3-.35-1.75-1-3.35-2-4.8C22.9 4.7 22.05 3.8 21.1 3c-.15-.15-.3-.25-.5-.4-.2-.15-.35-.25-.5-.35-1.5-1-3.25-1.7-5.1-2.05-.1 0-.2-.05-.3-.05-.1 0-.2-.05-.3-.05h-.05c-.1 0-.2 0-.25-.05h-2.35-.05c-.1 0-.2 0-.25.05h-.05c-.1 0-.2 0-.3.05-.1 0-.2.05-.3.05-.1 0-.2.05-.3.05-5.3 1-9.45 5.25-10.35 10.6 0 .1-.05.2-.05.3 0 .1-.05.2-.05.3v.05c0 .1 0 .2-.05.3v2.4c0 .1 0 .2.05.3v.05c0 .1 0 .2.05.3 0 .1.05.2.05.3.35 2.05 1.2 4 2.4 5.6.1.15.25.35.4.5.8.95 1.75 1.8 2.75 2.5 1.4.95 3.05 1.65 4.8 2 .1 0 .2.05.3.05.1 0 .2.05.3.05.1 0 .2.05.3.05h.05c.1 0 .2 0 .25.05h2.4c.1 0 .2 0 .25-.05h.05c.1 0 .2 0 .3-.05.1 0 .2-.05.3-.05.1 0 .2-.05.3-.05 1.75-.35 3.35-1 4.8-2 .15-.1.35-.25.5-.35 1-.75 1.9-1.65 2.65-2.65.1-.15.25-.35.35-.5.95-1.4 1.65-3.05 2-4.8 0-.1.05-.2.05-.3 0-.1.05-.2.05-.3 0-.1.05-.2.05-.3v-.05c0-.1 0-.2.05-.25v-.05-.25-.1-.2-.15-.15-.3-.3-.25zM15.3 1.25c1.45.3 2.85.9 4.05 1.7L17.7 4.6c-.75-.45-1.55-.8-2.45-1V1.25h.05zm-5 0v2.3c-.85.25-1.7.55-2.45 1L6.2 2.9c1.25-.75 2.65-1.35 4.1-1.65zm-7.55 5.2L4.4 8.1c-.45.75-.8 1.55-1 2.45H1.1c.25-1.5.85-2.9 1.65-4.1zm0 13.1c-.8-1.2-1.35-2.6-1.7-4.05h2.3c.25.85.55 1.7 1 2.45l-1.6 1.6zm7.55 5.2c-1.45-.3-2.85-.9-4.05-1.7L7.9 21.4c.75.45 1.55.8 2.45 1v2.35h-.05zm5 0v-2.3c.85-.25 1.7-.55 2.45-1l1.65 1.65c-1.3.75-2.65 1.3-4.1 1.65zm5.05-7.25c0 .05-.05.1-.05.1-.05.05-.1.15-.15.2-.05.05-.05.1-.1.1-.05.1-.1.15-.15.25 0 .05-.05.05-.05.1-.05.1-.15.15-.2.25l-.1.1c-.05.05-.1.1-.15.2l-.1.1c-.05.1-.15.15-.2.2l-.1.1-.2.2-.1.1c-.05.05-.1.1-.2.15l-.1.1c-.1.05-.15.15-.25.2-.05 0-.05.05-.1.05-.1.05-.15.1-.25.15-.05.05-.1.05-.1.1-.05.05-.15.1-.2.15-.05 0-.1.05-.1.05-.65.4-1.3.7-2.05.9-.2.05-.35.1-.55.15h-.05c-.1 0-.15.05-.25.05h-.15c-.05 0-.15 0-.2.05-.1 0-.25.05-.35.05h-1.9c-.1 0-.25-.05-.35-.05-.05 0-.15 0-.2-.05h-.15c-.1 0-.15-.05-.25-.05h-.05c-.2-.05-.4-.1-.55-.15-.7-.2-1.4-.5-2.05-.9-.05 0-.1-.05-.1-.05-.05-.05-.15-.1-.2-.15-.05-.05-.1-.05-.1-.1-.1-.05-.15-.1-.25-.15-.05 0-.05-.05-.1-.05-.1-.05-.15-.15-.25-.2l-.1-.1c-.05-.05-.1-.1-.2-.15l-.1-.1-.2-.2-.1-.1-.2-.2-.1-.1c-.05-.05-.1-.1-.15-.2l-.1-.1c-.05-.1-.15-.15-.2-.25 0-.05-.05-.05-.05-.1-.05-.1-.1-.15-.15-.25-.05-.05-.05-.1-.1-.1-.05-.05-.1-.15-.15-.2 0-.05-.05-.1-.05-.1-.05-.1-.1-.2-.2-.3-.3-.55-.55-1.1-.7-1.7-.05-.2-.1-.35-.15-.55v-.05c0-.1-.05-.15-.05-.25v-.15c0-.05 0-.15-.05-.2 0-.1-.05-.25-.05-.35v-.15-.25-.15-.4-.4-.15-.25-.15c0-.1.05-.25.05-.35 0-.05 0-.15.05-.2v-.15c0-.1.05-.15.05-.25v-.05c.05-.2.1-.4.15-.55.2-.6.4-1.2.7-1.7.05-.1.1-.2.2-.3 0-.05.05-.1.05-.1.05-.05.1-.15.15-.2.05-.05.05-.1.1-.1.05-.1.1-.15.15-.25 0-.05.05-.05.05-.1.05-.1.15-.15.2-.25l.1-.1c.05-.05.1-.1.15-.2l.1-.1.2-.2.1-.1.2-.2.1-.1c.05-.05.1-.1.2-.15l.1-.1c.1-.05.15-.15.25-.2.05 0 .05-.05.1-.05.1-.05.15-.1.25-.15.05-.05.1-.05.1-.1.05-.05.15-.1.2-.15.05 0 .1-.05.1-.05.65-.4 1.3-.7 2.05-.9.2-.05.35-.1.55-.15h.05c.1 0 .15-.05.25-.05h.15c.05 0 .15 0 .2-.05.1 0 .25-.05.35-.05h1.9c.1 0 .25.05.35.05.05 0 .15 0 .2.05h.15c.1 0 .15.05.25.05h.05c.2.05.4.1.55.15.6.2 1.2.4 1.7.7.1.05.2.1.3.2.05 0 .1.05.1.05.05.05.15.1.2.15.05.05.1.05.1.1.1.05.15.1.25.15.05 0 .05.05.1.05.1.05.15.15.25.2l.1.1c.05.05.1.1.2.15l.1.1.2.2.1.1.2.2.1.1c.05.05.1.1.15.2l.1.1c.05.1.15.15.2.25 0 .05.05.05.05.1.05.1.1.15.15.25.05.05.05.1.1.1.05.05.1.15.15.2 0 .05.05.1.05.1.4.65.7 1.3.9 2.05.05.2.1.35.15.55v.05c0 .1.05.15.05.25v.15c0 .05 0 .15.05.2 0 .1.05.25.05.35V14c0 .1-.05.25-.05.35 0 .05 0 .15-.05.2v.15c0 .1-.05.15-.05.25V15c-.05.2-.1.4-.15.55-.2.65-.5 1.3-.85 1.95zm2.5 2.05L21.2 17.9c.45-.75.8-1.55 1-2.45h2.3c-.25 1.5-.85 2.85-1.65 4.1zm-.6-9.05c-.25-.85-.55-1.7-1-2.45L22.9 6.4c.8 1.2 1.35 2.6 1.7 4.05h-2.35v.05zm7.2 15.5h1.6V0h-1.6v26zm9.65-14.45h2v-8.9h3.5v-2h-9v2h3.5v8.9zm13.1.4c1.55-.1 3.35-1.05 3.8-2.75l-1.95-.5c-.2.75-1.15 1.2-1.95 1.25-.6.05-1.85-.1-2.7-.9-.6-.6-.95-1.45-.95-2.6 0-3.15 1.8-3.8 3.3-3.8 1.5 0 2.05 1 2.1 1.1l1.8-.85C55.6 2.8 54.6.6 51.75.6c-3.9 0-5.3 3-5.3 5.8 0 1.7.55 3.05 1.55 4.05 1.4 1.35 3.2 1.45 3.95 1.45.15.05.2.05.25.05zm-9.9 8.15c-.2 0-.4.15-.4.4s.15.4.4.4h2.3v2.15c-.25.6-1.9 2.1-3.5 2.1-1.65 0-4.05-2-4.05-4.75 0-2.25.65-5 3.85-5.15 2.7-.1 3.35 1.85 3.4 1.9.05.2.25.3.45.25.2-.05.3-.25.25-.45 0-.05-.8-2.6-4.1-2.45-2.95.1-4.55 2.2-4.55 5.85 0 3.3 2.9 5.5 4.8 5.5 1.35 0 2.7-.85 3.5-1.65v1.3c0 .2.15.4.4.4s.4-.15.4-.4v-5.4H42.3zm60.85 0h-3c-.2 0-.4.15-.4.4s.15.4.4.4h2.3v2.15c-.25.6-1.9 2.1-3.5 2.1-1.65 0-4.05-2-4.05-4.75 0-2.25.65-5 3.85-5.15 2.7-.1 3.35 1.85 3.4 1.9.05.2.25.3.45.25.2-.05.3-.25.25-.45 0-.05-.8-2.6-4.1-2.45-2.95.1-4.55 2.2-4.55 5.85 0 3.3 2.9 5.5 4.8 5.5 1.35 0 2.7-.85 3.5-1.65v1.3c0 .2.15.4.4.4s.4-.15.4-.4v-4.95l-.15-.45zM53.3 14.8c-.05-.15-.2-.25-.4-.25s-.35.1-.4.25l-4.4 10.5c-.1.2 0 .4.2.5.2.1.4 0 .5-.2l1.45-3.5c.05.05.1.05.2.05h5.05l1.45 3.5c.05.15.2.25.35.25.05 0 .1 0 .15-.05.2-.1.3-.3.2-.5L53.3 14.8zm-2.7 6.6l2.35-5.6 2.3 5.6H50.6zm20.6-6.85l-.3-.05-4.55 7.35-4.2-7.1c-.1-.15-.3-.25-.45-.2l-.3.1v10.8c0 .2.15.4.4.4s.4-.15.4-.4V16.2l4.2 7.1 4.45-7.15v9.3c0 .2.15.4.4.4s.4-.15.4-.4v-10.5c-.2-.15-.3-.35-.45-.4zm5.4-.1c-.2 0-.4.15-.4.4V25.5c0 .2.15.4.4.4s.4-.15.4-.4V14.85c-.05-.25-.2-.4-.4-.4zm13.2 0c-.2 0-.4.15-.4.4v9.5l-7.35-9.65c-.1-.15-.3-.2-.45-.15l-.3.1v10.8c0 .2.15.4.4.4s.4-.15.4-.4v-9.5l7.4 9.65c.1.15.3.2.45.15l.3-.1v-10.8c-.1-.25-.25-.4-.45-.4z"/></svg>