<svg xmlns="http://www.w3.org/2000/svg" width="68" height="23" viewBox="0 0 68 23"><title>logo_ag</title><path fill="#7E8693" fill-rule="nonzero" d="M9.206 12.934h4.344c-.5-1.298-.998-2.547-1.498-3.845-.999 1.298-1.898 2.547-2.846 3.845zm6.342 5.044h.05l-.9-2.247c-.249-.6-.199-.6-.848-.6H8.007c-.45 0-.7.15-.949.5-.899 1.248-1.847 2.497-2.746 3.745-.2.25-.4.4-.7.35H2.014c-.1 0-.2.05-.3-.1C5.41 14.632 9.057 9.688 12.752 4.694c.1.1.1.15.15.2 1.149 2.896 2.297 5.793 3.396 8.69l1.997-10.987H3.662c-.2 0-.3 0-.35.25-.499 3.046-1.048 6.042-1.547 9.088-.6 3.396-1.149 6.742-1.748 10.138-.05.3 0 .35.3.35h18.876c.1 0 .25.05.3-.05l.3-1.648h-4.745l.5-2.747zM38.769 0H19.992c-.25 0-.35.05-.4.3v.1l-.099.449c-.1.6-.2 1.198-.35 1.798l-2.047 11.336c-.05.35-.15.749-.2 1.099l-.45 2.546c-.1.7-.299 1.399-.299 2.098.05.05.1.1.15.1 1.149.05 2.297.05 3.446 0 .05 0 .1-.05.15-.05.15 0 .3-.05.449-.05h15.032c.3 0 .4-.05.449-.35l1.348-7.79L39.12.35c.1-.35.1-.35-.35-.35zm-4.095 7.49h-1.997c-.15 0-.25 0-.3-.149-.849-1.898-2.946-2.697-5.094-2.147-2.347.649-4.244 2.746-4.494 5.193-.3 2.647 1.548 4.695 4.095 4.645 1.848 0 3.296-.85 4.494-2.198l.1-.1v-.05c-.1-.05-.25-.05-.35-.05h-3.345c-.25 0-.3-.1-.25-.3.1-.548.2-1.098.3-1.697.05-.2.1-.3.35-.3h6.042c.25 0 .3.05.25.3-.1.5-.2.999-.25 1.498-.1.75-.6 1.299-1.049 1.898-1.398 1.698-3.146 2.846-5.293 3.196-2.497.4-4.695-.2-6.243-2.347-1.048-1.448-1.248-3.146-.899-4.894.7-3.596 3.596-6.442 7.142-7.042 1.997-.35 3.845.05 5.393 1.449.85.799 1.398 1.797 1.698 2.896-.05.15-.05.2-.3.2zm7.89-.249l-3.145 5.593h.799l.899-1.598h2.247l.3 1.598h.748l-.948-5.593h-.9zm-1.148 3.396l.899-1.648c.25-.45.45-.799.55-1.149 0 .35.05.85.15 1.399l.199 1.398h-1.798zm10.537-3.396h-.699l-.15.8h.7l.15-.8zm-.3 1.548h-.699l-.848 4.045h.699l.849-4.045zm4.295.25c-.3-.25-.699-.35-1.198-.35-.45 0-.85.1-1.149.3-.3.2-.55.5-.699.949l.7.05c.1-.25.199-.4.399-.55.2-.15.4-.2.699-.2.3 0 .55.05.699.2.1.1.2.2.2.4 0 .1-.05.3-.1.45-.2.05-.5.1-.949.15-.45.05-.749.05-.899.05-.25.05-.45.099-.649.249-.15.1-.3.25-.4.4-.1.15-.15.399-.15.599 0 .35.1.649.35.849.25.2.55.35.9.35.249 0 .498-.05.698-.15.2-.1.45-.25.7-.45 0 .2.05.35.1.5h.698c-.05-.25-.1-.4-.1-.55 0-.2.05-.45.1-.8l.25-.998c.05-.3.1-.55.1-.749.05-.3-.05-.5-.3-.7zm-.799 2.647c-.1.2-.3.4-.5.5-.199.099-.449.199-.648.199-.25 0-.45-.05-.55-.2-.15-.1-.2-.3-.2-.5 0-.15.05-.299.15-.399.1-.1.2-.2.4-.25.15-.05.45-.1.849-.15.25 0 .45-.05.55-.05.1 0 .199-.05.299-.1-.15.45-.25.75-.35.95zm-7.49-2.497c.3 0 .549.05.699.2.15.15.25.35.25.599l.698-.05c0-.4-.15-.7-.399-.949-.25-.25-.65-.35-1.149-.35-.45 0-.799.1-1.048.35-.25.25-.4.5-.4.849 0 .2.05.35.15.5.1.15.2.249.4.349.1.05.35.15.699.35.35.15.599.3.699.399.1.1.15.2.15.35 0 .15-.1.3-.25.449-.15.1-.4.2-.7.2-.199 0-.399-.05-.599-.15-.15-.1-.3-.2-.35-.35-.049-.15-.099-.3-.099-.499l-.7.05c0 .5.15.899.45 1.149.35.25.75.35 1.199.35.35 0 .65-.05.899-.15.25-.1.45-.25.55-.45.099-.2.199-.4.199-.6 0-.3-.1-.549-.35-.749-.15-.15-.45-.3-.998-.549l-.6-.3c-.1-.1-.15-.2-.15-.349 0-.15.05-.25.2-.35.1-.2.3-.3.55-.3zm-7.441 5.992c.35-.2.749-.35 1.148-.35.4 0 .7.1.949.3.25.2.4.5.5.9l.749-.1c-.05-.4-.2-.7-.35-.95-.15-.249-.4-.449-.75-.599-.349-.15-.648-.2-1.048-.2-.55 0-1.049.15-1.498.4-.45.25-.849.65-1.099 1.199-.3.549-.45 1.148-.45 1.847 0 .65.15 1.199.5 1.598.4.5.999.75 1.848.75.4 0 .75-.05 1.149-.2.4-.1.749-.3 1.048-.45l.5-2.297h-2.447l-.15.65h1.698l-.25 1.198c-.55.3-1.099.5-1.548.5-.5 0-.849-.15-1.149-.45-.3-.3-.4-.7-.4-1.299 0-.549.1-1.048.3-1.498.15-.4.4-.699.75-.949zm7.79.95c-.3-.25-.7-.35-1.198-.35-.45 0-.85.1-1.15.3-.299.2-.548.499-.698.948l.699.05c.1-.25.2-.4.4-.55.2-.15.399-.199.699-.199.3 0 .549.05.699.2.1.1.2.2.2.4 0 .1-.05.299-.1.449-.2.05-.5.1-.95.15-.449.05-.748.05-.898.05-.25.05-.45.1-.65.25-.15.099-.299.249-.399.399-.1.15-.15.4-.15.599 0 .35.1.65.35.849.25.2.55.35.899.35.25 0 .5-.05.699-.15.2-.1.45-.25.7-.45 0 .2.05.35.099.5h.7c-.05-.25-.1-.4-.1-.55 0-.2.05-.45.1-.799l.249-.999c.05-.3.1-.549.1-.749.05-.25-.1-.499-.3-.699zm-.799 2.696c-.1.2-.3.4-.5.5-.2.1-.449.2-.649.2-.25 0-.449-.05-.549-.2-.15-.1-.2-.3-.2-.5 0-.15.05-.3.15-.4.1-.1.2-.2.35-.25.15-.05.45-.1.849-.15.25 0 .45-.049.55-.049.099 0 .199-.05.299-.1-.1.4-.2.7-.3.949zM54.5 15.78c-.25 0-.5.05-.699.2-.25.15-.45.3-.65.549-.05-.25-.149-.45-.349-.55-.15-.15-.4-.2-.649-.2-.25 0-.45.05-.65.15-.199.1-.449.3-.698.6l.15-.65h-.7l-.849 4.046h.7l.399-1.898c.1-.4.2-.75.35-.949.15-.2.3-.4.549-.5.2-.1.4-.2.6-.2.149 0 .249.05.299.1.1.1.1.2.1.3 0 .1 0 .2-.05.4l-.55 2.747h.7l.4-1.948c.099-.4.199-.75.299-.949.1-.2.3-.35.5-.5.199-.1.399-.199.648-.199.15 0 .25.05.35.1.1.1.15.2.15.3 0 .1 0 .25-.05.449l-.55 2.697h.7l.549-2.597c.05-.3.1-.5.1-.6 0-.3-.1-.499-.25-.699-.15-.2-.5-.2-.849-.2zm2.996-.65h.7l.15-.799h-.7l-.15.8zm-.998 4.795h.699l.849-4.045h-.7l-.848 4.045zm5.143-4.145c-.25 0-.499.05-.749.2-.25.15-.5.349-.749.599l.15-.7h-.65l-.848 4.046h.699l.4-1.898c.15-.6.35-1.049.599-1.298.3-.25.599-.4.949-.4.2 0 .3.05.4.15.099.1.149.2.149.35 0 .1-.05.299-.1.549l-.55 2.547h.7l.5-2.447c.05-.3.1-.55.1-.7 0-.3-.1-.549-.3-.699-.1-.2-.35-.3-.7-.3zm5.643.1l-.15.649c-.299-.5-.699-.75-1.248-.75-.3 0-.649.1-.949.3-.3.2-.549.5-.799.85-.2.399-.35.798-.35 1.248 0 .55.15.999.4 1.298.3.3.6.45 1.049.45.4 0 .799-.2 1.149-.55l-.05.35c-.1.5-.2.799-.35.949-.2.2-.5.3-.899.3-.2 0-.35-.05-.5-.1-.1-.05-.15-.1-.199-.2-.05-.1-.05-.2-.05-.35l-.7-.05v.2c0 .2.05.4.15.55.1.15.3.299.55.349.25.1.5.15.849.15.35 0 .65-.05.899-.2.25-.15.45-.3.6-.55.149-.25.249-.599.349-.998l.799-3.895h-.55zm-.549 2.496c-.15.35-.3.6-.55.75-.199.15-.449.25-.698.25-.15 0-.35-.05-.45-.15-.15-.1-.25-.25-.35-.45-.05-.15-.1-.35-.1-.65 0-.149.05-.349.1-.598.05-.25.15-.5.3-.65.15-.2.3-.3.45-.4.15-.1.3-.149.5-.149.249 0 .498.1.698.3.2.2.3.45.3.799 0 .3-.1.649-.2.948z"/></svg>