<svg xmlns="http://www.w3.org/2000/svg" width="116" height="24" viewBox="0 0 116 24"><title>logo_play</title><path fill="#7E8693" fill-rule="nonzero" d="M27.947 6.133C27.174 5 25.834 4.33 24.545 3.97c-1.907-.516-3.865-.516-5.824-.31-1.752.207-3.505.619-5.206 1.186-.979-.619-1.958-1.134-2.938-1.752-.567-.361-1.391-.361-1.855.154-.31.258-.412.67-.412 1.083v2.834c-1.083.67-2.165 1.34-3.144 2.114-1.753 1.391-3.35 2.989-4.382 5-.618 1.236-1.03 2.73-.618 4.122.36 1.34 1.392 2.32 2.629 2.938 1.958.928 4.174 1.031 6.288.928 2.32-.155 4.587-.722 6.752-1.495 3.298-1.185 6.39-2.938 8.968-5.308 1.598-1.495 3.04-3.248 3.608-5.412.464-1.34.31-2.835-.464-3.918zm-17.163-.979c.36-.051.67.206.979.361 2.32 1.392 4.587 2.732 6.855 4.123.31.155.515.464.515.773.052.413-.257.722-.618.877-2.423 1.391-4.794 2.783-7.216 4.175-.464.309-.98.051-1.289-.31-.051-.309-.103-.67-.103-.979-.051-2.629 0-5.257-.051-7.886 0-.567.412-1.134.928-1.134zm4.535 14.277c-2.01.98-4.226 1.701-6.494 1.907-.773.103-1.546 0-2.32-.154-.927-.206-1.855-.619-2.473-1.392-.774-1.03-.825-2.422-.413-3.608.052.876.361 1.701 1.031 2.32 1.134 1.082 2.732 1.391 4.278 1.494 2.629.103 5.206-.464 7.628-1.443.155-.051.361-.103.516-.155-.567.413-1.134.722-1.753 1.031zm7.938-9.38c-.361 1.752-1.495 3.195-2.732 4.432-2.062 2.062-4.639 3.557-7.422 4.433-1.34.36-2.68.618-4.072.464-.876-.155-1.804-.464-2.32-1.186-.566-.721-.618-1.7-.36-2.577.36-1.288 1.082-2.474 2.01-3.453v4.278c0 .412.052.876.36 1.185.362.361.929.516 1.444.31.31-.104.567-.31.876-.464 3.247-1.907 6.495-3.763 9.69-5.618.413-.258.876-.464 1.083-.928.257-.567 0-1.289-.567-1.546-1.444-.825-2.938-1.598-4.433-2.423 1.03-.36 2.216-.515 3.299-.464 1.03.052 2.113.361 2.731 1.237.516.67.567 1.547.413 2.32zm2.268-1.804c-.31-.516-.619-1.031-1.134-1.392-1.289-.98-2.938-1.185-4.484-1.288-1.289 0-2.63.154-3.918.463-.412.155-.67-.257-1.03-.412 1.494-.67 3.092-1.082 4.69-1.288 1.443-.104 3.04-.104 4.33.721 1.082.722 1.7 1.959 1.546 3.196zm52.47 13.452c.257-.051.36-.103.463-.258.155-.154.206-.36.206-.618 0-.516-.36-.876-.98-.876H76.19c0 .206.052.309.052.515v2.216c0 .258 0 .361-.052.516h.619c0-.155-.052-.31-.052-.516v-.824h.619c.309 0 .464.154.67.721.154.361.206.567.206.67h.67l-.206-.412c-.413-.928-.464-1.03-.722-1.134zm-.413-.258h-.825v-.927h.825c.36 0 .515.154.515.464 0 .154-.051.257-.154.36-.103.052-.207.103-.361.103zm-9.072.207c-.154-.104-.36-.155-.67-.258-.463-.103-.463-.103-.567-.155-.206-.103-.257-.206-.257-.36 0-.258.257-.464.618-.464.206 0 .413.051.516.206.051.103.103.154.103.309l.567-.052c-.052-.206-.103-.36-.206-.463-.207-.258-.567-.413-1.031-.413-.722 0-1.186.361-1.186.928 0 .258.103.515.31.67.154.103.309.155.618.258.567.154.567.154.722.206.103.051.206.206.206.36 0 .31-.258.516-.67.516-.258 0-.464-.103-.619-.258-.051-.103-.103-.154-.103-.36l-.567.051c0 .155.052.258.103.361.103.206.206.36.361.464.206.154.515.206.876.206.413 0 .773-.103.98-.31.154-.154.257-.412.257-.67 0-.412-.103-.618-.36-.772zm2.268-1.701c-.412 0-.773.154-1.03.412-.31.31-.464.773-.464 1.289 0 1.03.618 1.7 1.546 1.7s1.546-.67 1.546-1.7c0-.516-.155-.98-.464-1.289-.36-.258-.721-.412-1.134-.412zm0 2.938c-.257 0-.464-.103-.618-.258-.206-.206-.31-.567-.31-.98 0-.721.361-1.185.98-1.185.258 0 .464.103.618.258.207.206.31.515.31.928-.052.773-.413 1.237-.98 1.237zm4.227-2.32v1.443c0 .567-.258.825-.825.825s-.825-.31-.825-.825v-1.443c0-.258 0-.412.052-.567h-.619c0 .155.052.31.052.567v1.443c0 .413.103.722.31.928.205.258.618.36 1.03.36.876 0 1.392-.463 1.392-1.34v-1.442c0-.258 0-.413.051-.567h-.618v.618zm21.235 1.083c-.155-.104-.36-.155-.67-.258-.464-.103-.464-.103-.567-.155-.206-.103-.258-.206-.258-.36 0-.258.258-.464.619-.464.206 0 .412.051.515.206.052.103.103.154.103.309l.567-.052c-.051-.206-.103-.36-.206-.463-.206-.258-.567-.413-1.03-.413-.722 0-1.186.361-1.186.928 0 .258.103.515.309.67.155.103.31.155.619.258.566.154.566.154.721.206.103.051.206.206.206.36 0 .31-.257.516-.67.516-.257 0-.464-.103-.618-.258-.052-.103-.103-.154-.103-.36l-.567.051c0 .155.051.258.103.361.103.206.206.36.36.464.207.154.516.206.877.206.412 0 .773-.103.98-.31.154-.154.257-.412.257-.67 0-.412-.103-.618-.361-.772zm9.535.927c-.154.207-.36.31-.67.31-.567 0-.928-.464-.928-1.237 0-.774.361-1.186.928-1.186.258 0 .464.103.619.258.103.103.103.154.154.36l.567-.154c-.051-.155-.103-.206-.103-.31-.103-.154-.258-.309-.412-.463-.206-.155-.464-.206-.773-.206-.413 0-.773.154-1.031.412-.31.31-.464.773-.464 1.34 0 .516.155.98.464 1.289.258.257.618.412 1.03.412.516 0 .877-.155 1.135-.464.103-.154.206-.31.257-.618l-.567-.103c-.103.154-.103.257-.206.36zm1.753.207v-.98h.979c.258 0 .36 0 .515.052v-.516c-.154 0-.309.052-.515.052h-.98v-.876h1.186c.258 0 .36 0 .516.051v-.515c-.207 0-.31.051-.516.051H106.961c0 .206.051.31.051.516v2.216c0 .258 0 .36-.051.515H108.765c.257 0 .36 0 .515.052v-.567c-.155 0-.31.052-.515.052h-1.237v-.103zm4.33-1.134c-.155-.104-.362-.155-.67-.258-.465-.103-.465-.103-.568-.155-.206-.103-.258-.206-.258-.36 0-.258.258-.464.619-.464.206 0 .412.051.515.206.052.103.103.154.103.309l.567-.052c-.051-.206-.103-.36-.206-.463-.206-.258-.567-.413-1.03-.413-.722 0-1.186.361-1.186.928 0 .258.103.515.31.67.154.103.308.155.618.258.567.154.567.154.721.206.103.051.206.206.206.36 0 .31-.257.516-.67.516-.257 0-.463-.103-.618-.258-.052-.103-.103-.154-.103-.36l-.567.051c0 .155.051.258.103.361.103.206.206.36.36.464.207.154.516.206.877.206.412 0 .773-.103.98-.31.154-.154.257-.412.257-.67 0-.412-.103-.618-.36-.772zm2.937 0c-.155-.104-.36-.155-.67-.258-.464-.103-.464-.103-.567-.155-.206-.103-.258-.206-.258-.36 0-.258.258-.464.619-.464.206 0 .412.051.515.206.052.103.103.154.103.309l.567-.052c-.051-.206-.103-.36-.206-.463-.206-.258-.567-.413-1.03-.413-.722 0-1.186.361-1.186.928 0 .258.103.515.31.67.154.103.308.155.618.258.567.154.567.154.721.206.103.051.206.206.206.36 0 .31-.257.516-.67.516-.257 0-.464-.103-.618-.258-.052-.103-.103-.154-.103-.36l-.567.051c0 .155.051.258.103.361.103.206.206.36.36.464.207.154.516.206.877.206.412 0 .773-.103.98-.31.154-.154.257-.412.257-.67 0-.412-.155-.618-.361-.772zm-33.4.927c-.154.207-.36.31-.67.31-.566 0-.927-.464-.927-1.237 0-.774.36-1.186.928-1.186.258 0 .464.103.618.258.103.103.103.154.155.36l.567-.154c-.052-.155-.103-.206-.103-.31-.103-.154-.258-.309-.412-.463-.207-.155-.464-.206-.774-.206-.412 0-.773.154-1.03.412-.31.31-.464.773-.464 1.34 0 .516.154.98.464 1.289.257.257.618.412 1.03.412.516 0 .877-.155 1.134-.464.103-.154.207-.31.258-.618l-.567-.103c-.103.154-.155.257-.206.36zm21.133 0c-.155.207-.36.31-.67.31-.567 0-.928-.464-.928-1.237 0-.774.361-1.186.928-1.186.258 0 .464.103.619.258.103.103.103.154.154.36l.567-.154c-.051-.155-.103-.206-.103-.31-.103-.154-.258-.309-.412-.463-.206-.155-.464-.206-.773-.206-.413 0-.774.154-1.031.412-.31.31-.464.773-.464 1.34 0 .516.155.98.464 1.289.257.257.618.412 1.03.412.516 0 .877-.155 1.135-.464.103-.154.206-.31.257-.618l-.567-.103c-.103.154-.103.257-.206.36zm-14.38-2.628c-.412 0-.773.154-1.03.412-.31.31-.465.773-.465 1.289 0 1.03.619 1.7 1.546 1.7.928 0 1.547-.67 1.547-1.7 0-.516-.155-.98-.464-1.289-.31-.258-.67-.412-1.134-.412zm0 2.938c-.258 0-.464-.103-.619-.258-.206-.206-.309-.567-.309-.98 0-.721.361-1.185.98-1.185.257 0 .463.103.618.258.206.206.31.515.31.928 0 .773-.362 1.237-.98 1.237zm2.525-2.835h-.515c0 .206.052.309.052.515v2.165c0 .258 0 .464-.052.567h.619c0-.155-.052-.31-.052-.567v-.825h.876c.258 0 .413 0 .567.052v-.567c-.154 0-.31.051-.567.051h-.876v-.927h1.082c.258 0 .413 0 .567.051v-.567c-.154 0-.309.052-.567.052h-1.134zm8.66.515v1.443c0 .567-.258.825-.825.825s-.825-.31-.825-.825v-1.443c0-.258 0-.412.052-.567h-.619c0 .155.052.31.052.567v1.443c0 .413.103.722.309.928.206.258.618.36 1.03.36.877 0 1.392-.463 1.392-1.34v-1.442c0-.258 0-.413.052-.567h-.67c.051.206.051.36.051.618zm-16.185 2.217v-.98h.98c.257 0 .36 0 .515.052v-.516c-.155 0-.31.052-.515.052h-.98v-.876h1.186c.258 0 .36 0 .515.051v-.515c-.206 0-.309.051-.515.051H82.58c0 .206.052.31.052.516v2.216c0 .258 0 .36-.052.515h1.804c.258 0 .361 0 .516.052v-.567c-.155 0-.31.052-.516.052h-1.237v-.103zm22.37-7.783c-.619-.567-.928-.103-.928-.103s-.155.463-1.289 1.237c-1.134.773-.721-.67-.721-.67l2.267-6.495c1.083-3.865-1.597-3.298-1.597-3.298-1.65-.052-6.598 4.123-6.598 4.123l2.99-9.587L99.178 0l-5.206.98.052.772h1.7c1.29 0 .67 1.392.67 1.392l-2.886 10-1.443 1.649c-1.443 2.37-6.649 2.37-5.927-1.908.721-4.278 3.092-5.463 4.535-5.927 1.444-.412 1.444.67 1.444.67-.258-.051-1.34.67-.361 1.804.98 1.134 2.113.103 2.113.103s1.392-3.917-2.165-4.02c-3.556-.103-6.546 3.247-6.546 3.247.207-1.958-.824-3.144-2.422-3.195-1.598-.104-2.99.412-5.515 2.216-2.526 1.804-3.35 6.906-3.35 6.906s-1.34 1.495-2.165 1.444c-.825-.052-.464-1.134-.464-1.134l2.216-8.35h2.371V5.463h-1.958c.412-1.133 1.082-3.865.618-3.968-.464-.103-1.134 1.082-1.134 1.082-.876 1.804-3.608 3.299-3.608 3.299-1.082-.567-1.7-.413-1.7-.413-2.629.258-1.444 3.144-1.031 3.248.773.154.721.824.721.824-.154 2.99-2.113 4.484-2.113 4.484-.206-6.03-1.855-8.452-1.855-8.452l-2.732.463-4.484.052-.361.773c-1.03-1.03-3.556-2.525-6.7 1.237-3.145 3.763-2.784 6.804-2.784 6.804-1.855 1.494-1.65-.207-1.65-.207L48.977.103l-5.979.98 1.65.618-1.856 6.803c-.051-.206-1.185-2.937-3.092-2.989-1.907-.052-4.072 2.062-4.072 2.062l.154-1.547-5.36.98.773.412c.825 0 .413 1.134.413 1.134L28.205 21.44l-1.495.567v.67l7.37.052c0-.155.207-1.03-.927-1.03-1.134 0-.773-1.393-.773-1.393l.773-2.68c.154.206.773.413 2.731.516 3.711.154 6.237-6.391 5.464-3.969-.773 2.422.258 3.917 1.907 4.02 1.65.103 3.556-2.061 3.556-2.061s.155 1.752 2.68 2.061c2.526.31 4.33-2.783 4.33-2.783s-.722 2.577 1.959 2.68c2.68.103 3.814-2.474 4.226-2.99.412-.515-.618-.875-.618-.875s-.774 1.649-1.34 1.649c-.567 0-.464-1.392-.464-1.392s1.391-7.113 2.422-7.01c1.03.104 2.371 9.948 2.474 10.412.103.464-1.392 3.453-2.062 2.37-.67-1.081-2.731-1.494-3.504-.36-.774 1.134-.567 3.711 3.195 2.835 3.763-.928 8.35-9.69 9.123-11.597.773-1.907 1.237-4.536 1.237-4.536l.825.155s-2.217 7.731-2.474 8.814c-.206 1.082.36 2.628 1.907 2.628 1.546 0 3.71-2.37 3.71-2.37s.31 2.37 3.403 2.37c3.762 0 6.081-2.731 6.081-2.731s.877 2.474 3.97 2.731c3.092.206 4.896-2.216 4.896-2.216l-.413 1.959 2.371-.155 1.907-6.082s3.505-2.938 4.742-3.711c1.237-.773 1.083.876 1.083.876l-1.237 3.711s-2.165 4.69-.825 5.412c1.392.722 3.247-.618 3.247-.618s2.474-1.804 1.856-2.371zm-68.139-1.753s-1.546 3.917-3.298 3.402c-1.753-.515 1.288-6.649 1.288-6.649s.928-2.113 2.062-2.01c1.082.052 1.288 2.113-.052 5.257zm17.009-.618s-1.546 3.917-3.299 3.402c-1.752-.516 1.289-6.65 1.289-6.65s.928-2.113 2.062-2.01c1.082.104 1.288 2.114-.052 5.258zM81.654 7.01c3.504-.206.309 3.298-.825 3.917-1.134.618-3.144 1.134-3.402.825-.258-.361 1.237-4.588 4.227-4.742zm1.855 6.855s-2.268 3.04-4.793 2.886c-2.526-.155-2.01-3.762-2.01-3.762 6.236.103 7.576-2.99 7.576-2.99-1.03 2.938-.773 3.866-.773 3.866z"/></svg>