<svg xmlns="http://www.w3.org/2000/svg" width="28" height="28" viewBox="0 0 28 28"><title>logo_mg</title><path fill="#7E8693" fill-rule="nonzero" d="M13.905 0C6.225 0 0 6.226 0 13.905c0 1.396.207 2.744.59 4.016.022-.032 3.512-5.047 5.21-8 1.703-2.96 3.134-5.627 3.357-6.145.222-.518.765-1.086 1.53-.913.765.173.962.814.962 1.21 0 .394-.395 4.442-.32 8.391.073 3.949.542 6.418.987 7.306.444.888.592.667 1.234 0 .641-.667 4.121-6.047 5.553-10.169.247-.74.617-1.234 1.456-1.185.839.05 1.086.79 1.11 1.16.025.37.494 5.845 2.592 8.488.247.373.099.57 0 .644-.099.074-.222.148-.469-.099-.247-.246-2.32-2.147-3.505-5.577-1.06 2.492-3.924 7.947-5.503 9.033-1.58 1.086-2.592.913-3.455.42-.864-.494-2.716-1.918-2.493-12.209-1.396 2.886-4.662 8.303-6.522 11.31 2.49 3.751 6.751 6.224 11.591 6.224 7.68 0 13.905-6.225 13.905-13.905S21.584 0 13.905 0"/></svg>