<svg xmlns="http://www.w3.org/2000/svg" width="41" height="23" viewBox="0 0 41 23"><title>logo_vr</title><path fill="#7E8693" fill-rule="nonzero" d="M39.075 22.508h-.052c-1.5 0-2.845-.672-3.828-1.81l-8.433-10.192c-.207-.207-.258-.62-.155-.931.155-.31.466-.518.828-.518h5.277c.258 0 .983-.206 1.5-.724.362-.414.569-.931.569-1.552-.052-1.293-.931-2.224-1.707-2.224h-6.622c-.362 0-.673-.31-.673-.673 0-.362.31-.672.673-.672h6.622c1.604 0 3.052 1.655 3.104 3.57.052 1.034-.259 1.913-.931 2.586-.88.931-2.018 1.138-2.535 1.138h-4.19l7.76 9.364c.672.827 1.655 1.293 2.741 1.293h.052c.103 0 .155-.103.207-.103 0-.052.052-.156-.052-.26l-6.57-8.018.362-.827h1.552c.207 0 .362-.052.57-.104 1.086-.466 3.62-1.862 3.569-4.966 0-2.794-2.639-5.018-4.346-5.174h-9.933L11.708 21.94h-.776l-.207-.362L.482 5.126c-.828-1.397-.57-3.156.62-4.242L1.207.78C1.672.366 2.241.211 2.862.315c.569.103 1.086.413 1.448.93l7.14 11.33L19.157.315c.207-.31.62-.414.983-.207.31.207.413.62.206.983l-8.484 13.502h-.776l-.207-.31-7.708-12.21c-.155-.206-.362-.258-.466-.31-.103 0-.31 0-.517.155l-.103.104c-.725.62-.88 1.655-.362 2.431l9.674 15.572L23.814.315H34.47c2.586.155 5.639 3.155 5.69 6.518.052 4.087-3.414 5.846-4.449 6.26-.258.103-.517.155-.776.207l5.38 6.621c.414.466.466 1.139.207 1.708-.258.517-.776.88-1.448.88z"/></svg>