<svg xmlns="http://www.w3.org/2000/svg" width="74" height="26" viewBox="0 0 74 26"><title>logo_sg</title><path fill="#7E8693" fill-rule="nonzero" d="M11.403 2.938C5.13 2.938 0 8.018 0 14.341c0 6.325 5.08 11.404 11.403 11.404 6.325 0 11.404-5.08 11.404-11.404S17.727 2.938 11.403 2.938zm2.092 16.98c-3.685 0-6.673-2.987-6.673-6.672 0-3.685 2.988-6.673 6.673-6.673s6.673 2.988 6.673 6.673-2.988 6.673-6.673 6.673zm.846-8.714L12.4 9.063l-.498 2.838-2.639 1.195 2.54 1.345.348 2.888 2.092-1.992 2.838.548-1.245-2.59 1.395-2.49-2.889.4zM29.977 9.71c-2.19-.498-2.738-.796-2.738-1.494 0 0 .05-.846 1.593-.796 1.444.05 1.793.896 1.793.896l1.444-1.344s-.847-.847-1.843-1.295c-.746-.349-1.693-.349-2.091-.349-1.046 0-3.237.697-3.187 3.237.05 2.54 3.984 2.988 3.984 2.988s1.444.348.896 1.643c-.448 1.046-3.286-.05-3.934-.896l-1.245 1.494s2.191 1.991 4.084 1.942c1.892-.05 3.685-1.295 3.685-2.938 0-1.245-.25-2.59-2.44-3.088zm11.952 3.785v-3.187h-2.39l.05 2.59s-.698 1.045-2.69.497c-1.992-.548-1.892-3.137-1.892-3.137s.398-2.789 2.988-2.888c0 0 .896-.2 2.091 1.046L41.48 7.02s-.348-.498-.846-.846c-.697-.448-1.793-.797-2.739-.797-2.49.05-5.129 1.345-5.03 4.98 0 0-.298 4.98 5.03 4.98.05.149 3.536.099 4.034-1.843zm4.58-3.237h-3.784v1.892h3.785v-1.892zm9.412.946l-1.593-5.677h-2.191l-1.843 5.677-2.091-5.677h-2.64l3.686 10.01h1.892l2.091-6.673 1.942 6.673h1.694l3.485-10.01h-2.39l-2.042 5.677zm5.08 4.283h2.19V5.477h-2.19v10.01zm9.91-10.01v5.677L66.13 5.478h-1.942l-.15 9.61v.399h2.39L66.13 9.56l4.78 5.926h2.49V5.477h-2.49zm-8.815-1.344l1.594.847-.3-1.793 1.296-1.295-1.793-.249L62.096 0 61.3 1.643l-1.792.25L60.8 3.186l-.298 1.793 1.593-.847zM26.193 19.82h3.386c.2 0 .299-.05.398-.1.1-.05.1-.199.1-.398v-1.245c0-.2-.05-.299-.1-.398-.05-.1-.199-.1-.398-.1h-3.386c-.2 0-.299.05-.398.1-.05.1-.1.199-.1.398v1.245c0 .2.05.299.1.398.1.05.199.1.398.1zm-.05-1.693c0-.05 0-.1.05-.1h3.336c.05 0 .05 0 .05.05V18.524h-3.486v-.398h.05zm0 .797h3.486v.298c0 .1-.05.1-.1.1h-3.336c-.05 0-.05-.05-.05-.1v-.298zm8.316 0c0-.2 0-.349-.05-.498-.05-.15-.05-.2-.1-.25-.049-.05-.149-.099-.248-.099h-1.046v-.498c0-.15-.05-.249-.2-.249-.149 0-.248.1-.248.25v.497h-.647c-.1 0-.15 0-.25.05-.099.05-.099.1-.099.2 0 .099.05.148.1.198.05.05.149.05.249.05h.647c0 .398-.05.747-.1 1.096l-.15 1.045c-.049.349-.148.648-.248.946-.1.3-.25.598-.398.847-.05.1-.1.2-.1.249 0 .05 0 .15.1.2.1.049.149.099.199.049.05-.05.1-.1.199-.249.1-.2.2-.398.299-.647.1-.25.199-.548.249-.897.05-.348.15-.697.199-1.145.05-.448.1-.946.15-1.494H33.811c.05 0 .05.05.1.05 0 .05.05.05.05.1V21.71c-.05.25-.1.448-.2.548-.1.15-.2.2-.398.2h-.2c-.05 0-.149-.05-.249-.05-.1-.05-.199-.05-.249-.05-.05 0-.1.05-.149.149-.05.1-.05.15 0 .2.05.049.1.099.25.149.148.05.248.1.348.1h.298c.3 0 .498-.1.698-.3.199-.199.298-.498.348-.896v-.349-.448-.547-.548-.498-.448zm28.982 2.19c.1-.05.15-.099.15-.198 0-.05-.05-.15-.1-.3-.1-.198-.25-.398-.399-.547-.15-.2-.299-.349-.398-.548h.647c.1 0 .15 0 .2-.05.05-.05.05-.1.05-.149 0-.05 0-.1-.05-.15-.05-.05-.1-.05-.2-.05h-.647v-.945c.1-.05.199-.05.299-.1.1-.05.249-.05.348-.1.1-.05.15-.1.2-.149.05-.05.05-.1 0-.199-.05-.1-.1-.1-.15-.15-.05-.05-.15 0-.25.05-.099.05-.198.1-.298.1-.15.05-.299.1-.448.1-.15.05-.299.05-.498.1-.15.049-.299.049-.448.049-.25.05-.299.15-.25.299.05.1.05.15.15.15h.2c.099 0 .248-.05.348-.05.1 0 .2-.05.349-.05v.846h-.947c-.1 0-.149 0-.149.05-.05.05-.05.1-.05.15 0 .049 0 .099.05.149.05.05.1.05.15.05h.846c-.15.348-.299.697-.498.995-.15.3-.349.598-.598.897-.05.05-.05.15-.1.199 0 .05.05.1.1.15.05.05.15.05.2.05.05-.05.149-.1.199-.15.15-.2.299-.449.398-.648.1-.199.25-.398.349-.597v2.39c0 .15.1.249.249.249.15 0 .249-.1.249-.249v-2.54c.05.1.15.2.199.3.05.099.15.248.2.348.049.1.099.15.198.199.1.05.1.05.15.05zm9.51 1.395c-.298-.1-.547-.2-.796-.299-.249-.1-.448-.249-.647-.398.249-.2.448-.399.647-.648.2-.248.349-.497.498-.796.1-.2.15-.349.15-.448 0-.15-.05-.2-.1-.3-.1-.049-.2-.099-.349-.099h-.946v-.896h1.444c.1 0 .15 0 .15-.05s.05-.1.05-.15c0-.099 0-.149-.05-.149-.05-.05-.1-.05-.15-.05h-1.444v-.647c0-.15-.1-.249-.249-.249-.05 0-.1 0-.15.05-.049.05-.049.1-.049.2v.647h-1.295c-.15 0-.249.1-.249.248 0 .05 0 .1.05.15.05.05.1.05.2.05h1.294v.896h-1.195c-.15 0-.25.1-.25.249 0 .1.05.2.2.2.15.348.299.696.448.995.15.299.399.548.598.797-.448.299-.946.498-1.544.747-.15.05-.2.1-.249.15-.05.049-.05.099 0 .198 0 .1.05.15.15.15.05 0 .149 0 .298-.05.3-.1.598-.249.897-.398.298-.15.547-.3.796-.449.399.349.946.648 1.594.847.15.05.249.1.299.05.05 0 .1-.05.149-.15.05-.1 0-.149 0-.199 0-.05-.1-.15-.2-.199zm-1.792-.996c-.199-.2-.398-.448-.548-.697-.149-.25-.298-.548-.398-.847h1.842c.2 0 .25.05.15.2l-.448.747c-.2.199-.349.398-.598.597zm-1.793-1.544c0-.05 0-.1-.05-.199-.05-.05-.099-.1-.198-.1-.05 0-.15.05-.25.1-.05.05-.1.05-.1.1-.049.05-.099.05-.099.1v-1.146h.349c.1 0 .15 0 .2-.05.049-.05.099-.1.099-.15 0-.099-.05-.149-.1-.149s-.1-.05-.2-.05h-.348v-.846c0-.15-.1-.249-.249-.249-.05 0-.1 0-.149.05-.05.05-.05.1-.05.2v.846h-.498c-.1 0-.15 0-.199.05-.05.05-.05.1-.05.149 0 .15.1.249.25.249h.497v1.444l-.299.15-.298.149c-.1.05-.15.1-.2.15-.05.049 0 .149 0 .248.05.05.05.1.15.1.05 0 .1 0 .199-.05.15-.05.299-.15.448-.2v1.544c0 .05 0 .1-.05.1h-.149c-.05 0-.1 0-.15-.05-.05 0-.099-.05-.149-.05-.15-.05-.249 0-.299.15-.05.1-.05.15 0 .199 0 .05.05.1.15.1.1.05.199.05.299.1.1 0 .149.049.249.049.199 0 .298-.05.398-.15.05-.099.1-.248.1-.448v-1.842c.1-.05.199-.15.298-.2.1-.049.2-.149.25-.198.149-.1.198-.15.198-.2zm-2.689.996c-.05-.05-.149-.05-.249 0-.05 0-.149 0-.199.05-.05 0-.15 0-.199.05v-3.536c0-.1 0-.149-.05-.149s-.1-.05-.15-.05c-.049 0-.099 0-.148.05-.05 0-.05.1-.05.15v3.585l-1.046.15c-.349.049-.697.099-.996.148-.15 0-.2.05-.249.1-.05.05-.05.1-.05.2 0 .099.05.149.1.149.05.05.15.05.249 0l1.992-.3v1.296c0 .1 0 .149.05.149.05.05.1.05.149.05.05 0 .1 0 .15-.05.05-.05.05-.1.05-.15v-1.394l.497-.05c.1 0 .2-.05.25-.1.049-.049.049-.099.049-.198l-.15-.15zm-36.202 1.444h-2.19v-.597h1.792c.1 0 .15 0 .15-.05.05-.05.05-.1.05-.15 0-.149-.1-.248-.25-.248h-1.792v-.498h1.942c.15 0 .249-.1.249-.25 0-.05 0-.099-.05-.149-.05-.05-.1-.05-.2-.05h-1.941v-.199c0-.199-.05-.249-.2-.249-.149 0-.249.1-.249.25v.199h-1.294c.05-.15.1-.2.1-.3 0-.049-.05-.099-.1-.149-.05-.05-.15-.05-.2 0-.05.05-.1.1-.149.2-.1.199-.199.348-.299.498-.1.149-.199.249-.348.348-.1.1-.15.15-.15.2 0 .05 0 .149.05.198.1.15.25.1.448-.05.1-.05.15-.149.25-.248.05-.1.149-.15.199-.25h1.593v.499h-1.892c-.15 0-.25.1-.25.249 0 .05 0 .1.05.15.05.049.1.049.2.049h1.842v.597h-2.44c-.15 0-.249.1-.249.25 0 .149.1.248.25.248h5.078c.15 0 .25-.1.25-.249s-.1-.249-.25-.249zm34.16-2.589l-.248-.249c-.1-.1-.2-.15-.299-.249-.15-.1-.249-.1-.349 0-.05.05-.05.1-.05.15 0 .05.05.099.1.149.1.1.2.15.3.249.099.05.148.15.248.199.1.05.15.15.249.249.1.1.15.2.249.299.05.05.1.1.15.1.05 0 .149 0 .199-.05.1-.1.1-.2 0-.349-.1-.1-.2-.2-.25-.299-.149-.05-.199-.1-.298-.199zm-8.265.697v-.249c0-.05-.05-.1-.05-.15-.05-.049-.1-.049-.15-.049h-1.096c-.099 0-.099.05-.148.05-.05.05-.05.1-.05.15v1.393c0 .15-.05.3-.05.399 0 .1-.05.199-.1.299-.05.1-.1.199-.15.249-.049.1-.099.149-.099.199 0 .05.05.1.1.15.05.049.1.049.2.049.049 0 .149-.05.149-.15.05-.099.1-.199.149-.348.05-.1.1-.249.1-.349h.149c.249-.1.448-.199.597-.298v.498c0 .1-.05.149-.149.149-.05 0-.15 0-.299-.05-.1 0-.15-.05-.199 0-.05 0-.1.05-.1.1-.05.1-.05.15 0 .199.05.05.1.1.15.1.05 0 .1.05.15.05h.498c.049 0 .149 0 .149-.05.05-.05.149-.1.149-.15.05-.05.05-.199.05-.348v-1.843h.05zm-.399.946c-.05 0-.1 0-.15.05-.099.05-.149.1-.248.15l-.299.149v-.747c.05 0 .1.05.15.05.05 0 .1.05.149.1.05.05.1.05.15.05.049 0 .049-.05.099-.1v-.15c0-.05-.05-.1-.1-.1-.1-.05-.199-.1-.249-.1-.05 0-.15-.049-.249-.099v-.15c0-.049 0-.049.05-.049h.598c.05 0 .05 0 .05.05v.896h.05zm-1.394-3.685c-.05.05-.05.1-.05.15 0 .1 0 .15.05.15s.1.049.2.049h.248v.498c0 .05.05.1.05.1.05.05.1.05.15.05h4.282c.1 0 .15 0 .199-.05.05-.05.05-.1.05-.15 0-.1 0-.15-.05-.15s-.1-.05-.2-.05h-4.133v-.249h4.433c.1 0 .149 0 .149-.049 0-.05.05-.1.05-.15 0-.05 0-.099-.05-.149-.05-.05-.1-.05-.15-.05h-2.24c0-.05-.05-.149-.05-.199 0-.05-.05-.1-.05-.149-.05-.15-.15-.2-.348-.15-.05.05-.1.05-.1.1s0 .1.05.2V17.677h-2.44c.05.05 0 .1-.05.1zm4.73 1.195h-3.834c-.05 0-.1.05-.15.05-.049.05-.049.1-.049.15V19.719c0 .05.05.1.05.15.05.05.1.05.15.05h3.834c.05 0 .1-.05.149-.05.05 0 .05-.1.1-.15v-.299-.248c0-.05-.05-.1-.05-.15 0-.05-.1-.05-.2-.05zm-.149.548c0 .05-.05.05-.1.05h-3.336v-.2c0-.049.05-.049.1-.049h3.286c.05 0 .1 0 .1.05v.15h-.05zm-5.776 2.988c-.299 0-.548-.05-.847-.1-.299-.05-.547-.1-.796-.149.249-.1.448-.15.697-.249.199-.1.448-.249.647-.349.1-.05.15-.1.15-.199.05-.05.05-.15 0-.199-.05-.05-.05-.1-.15-.15-.1-.05-.2-.05-.299-.05h-4.133c-.1 0-.15 0-.199.05-.05.05-.05.1-.05.15 0 .05 0 .1.05.15.05.05.1.05.2.05h.248s.05.05.1.05c.249.148.448.248.647.397.25.1.448.25.697.349-.249.05-.548.1-.896.15-.349.05-.697.099-.996.099-.15 0-.249 0-.299.05-.05.05-.1.1-.1.15 0 .099.05.149.1.149s.15.05.25.05c.447 0 .846-.05 1.294-.15.448-.1.846-.2 1.295-.299.298.1.647.2 1.045.25.399.099.847.149 1.295.198h.299c.05 0 .1-.05.1-.149 0-.05 0-.15-.05-.15 0-.05-.1-.05-.3-.099zm-3.038-.747c-.199-.1-.448-.2-.647-.349h2.888s0 .05-.05.05c-.15.1-.348.2-.597.25-.25.099-.498.198-.847.298-.299-.05-.548-.15-.747-.249zm1.594-4.133c.05-.1.05-.2 0-.249-.05-.05-.05-.1-.1-.1h-.15c-.05.05-.099.1-.099.15-.05.15-.05.249-.1.398-.05.1-.099.25-.149.349-.05.1-.1.199-.15.348-.049.1-.149.2-.248.349-.05.1-.1.15-.05.199 0 .05.05.1.1.15.05.05.1.05.149.05.05 0 .1-.05.15-.1v1.593c0 .05 0 .1.05.15.049.05.099.05.149.05.05 0 .1 0 .149-.05.05-.05.05-.1.05-.15v-.1h1.842c.1 0 .15 0 .15-.05s.05-.099.05-.149c0-.1 0-.149-.05-.149-.05-.05-.1-.05-.15-.05h-.697v-.348h.548c.15 0 .199-.05.199-.2 0-.149-.05-.199-.2-.199h-.547v-.348h.548c.1 0 .15 0 .15-.05.049-.05.049-.1.049-.15 0-.05 0-.1-.05-.149-.05-.05-.1-.05-.15-.05h-.547v-.348h.647c.15 0 .2-.05.2-.2 0-.149-.05-.199-.2-.199h-.597c.05-.05.05-.15 0-.249-.05-.05-.05-.149-.1-.199-.05-.05-.1-.15-.15-.199-.049-.05-.049-.1-.149-.1-.05 0-.1 0-.149.05-.05.05-.05.05-.05.1s0 .1.05.15c.05.049.05.099.1.149.05.05.1.149.1.199 0 0 0 .05.05.05h-.748c0-.05.05-.1.05-.2 0 0 0-.05.05-.149zm.448 2.64h-.747v-.35h.747v.35zm0-.748h-.747v-.348h.747v.348zm0-1.095v.348h-.747v-.348h.747zm-2.988-.996c0-.05-.05-.1-.1-.1-.149-.05-.248 0-.298.15l-.299.747c-.15.248-.299.497-.498.697-.05.05-.1.149-.1.199 0 .05.05.1.1.15.05.049.1.049.15.049.05 0 .149-.05.199-.15l.1-.099v1.693c0 .05 0 .1.049.15.05.05.1.05.15.05.05 0 .099 0 .149-.05.05-.05.05-.1.05-.15v-.1h1.742c.15 0 .2-.05.2-.199 0-.1 0-.149-.05-.149-.05-.05-.1-.05-.15-.05h-.697v-.348h.548c.15 0 .2-.05.2-.2 0-.149-.05-.199-.2-.199h-.498v-.348h.548c.05 0 .1 0 .15-.05.049-.05.049-.1.049-.15 0-.05 0-.1-.05-.149-.05-.05-.1-.05-.15-.05h-.547v-.348h.647c.1 0 .15 0 .15-.05.05-.05.05-.1.05-.15 0-.149-.05-.199-.2-.199h-.547c.05-.05.05-.15 0-.249-.05-.05-.05-.149-.1-.199-.05-.05-.1-.15-.15-.199-.05-.05-.05-.1-.149-.1-.05 0-.1 0-.15.05-.049.05-.049.05-.049.1s0 .1.05.15c.05.049.05.099.1.149.05.05.1.149.1.199 0 0 0 .05.049.05h-.647c.05-.15.1-.25.149-.399-.05 0 0-.1-.05-.15zm.299 2.838h-.647v-.348h.647v.348zm0-.747h-.647v-.348h.647v.348zm0-1.095v.348h-.647v-.348h.647zm-12.947-.548c-.05-.05-.1-.1-.15-.1-.05 0-.149-.05-.298-.05H35.107c-.05 0-.15.05-.15.1-.05.05-.05.1-.1.15V22.508c0 .1.05.15.1.15.05.05.1.05.15.099.05.05.149.05.298.05h1.246c.099 0 .149-.05.149-.1.05-.05.05-.1.1-.199V18.275v-.298c-.05.05-.1-.05-.15-.1zm-.349 4.432c0 .05-.05.1-.1.1h-.946s-.05 0-.05-.05v-4.084c0-.05 0-.1.05-.1h.947c.05 0 .1.05.1.1v4.034zm28.882-3.436c0-.05-.05-.1-.1-.15l-.199-.199-.199-.199c-.05-.05-.15-.15-.249-.2-.1-.049-.15-.148-.249-.198-.15-.1-.299-.15-.348 0-.05.05-.05.15-.05.199 0 .05.1.1.15.2.149.099.298.248.398.348.1.1.249.249.398.348.1.1.15.15.2.15.049 0 .099 0 .198-.05.05-.1.05-.2.05-.25zm-21.86 3.635c-.2-.1-.399-.2-.598-.349l-.598-.448c.2-.199.349-.398.498-.647.15-.25.3-.498.399-.747.1-.2.15-.398.1-.548-.05-.15-.2-.199-.449-.199h-.747v-1.145h.897c.05 0 .1 0 .1.05v.1c0 .099-.05.198-.1.248-.05.1-.1.15-.1.249-.05.1-.05.2-.05.249 0 .05.05.1.1.15.15.099.249.05.348-.15l.15-.299c.05-.1.1-.249.15-.348.049-.25.049-.448 0-.548-.05-.1-.2-.15-.45-.15h-.995v-.497c0-.1 0-.15-.05-.2-.05-.05-.1-.05-.15-.05-.099 0-.149 0-.198.05-.05.05-.05.1-.05.2v.498h-.896c-.2 0-.35.05-.449.149-.1.1-.1.249-.1.448v1.195c0 .548-.049 1.046-.099 1.394 0-.05-.05-.05-.05-.1-.05-.049-.1-.099-.149-.099-.05 0-.1.05-.2.1-.099.05-.149.1-.198.15-.05.05-.15.099-.2.149v-2.241h.449c.149 0 .249-.05.249-.2 0-.05 0-.149-.05-.149-.05-.05-.1-.05-.2-.05h-.448V17.48c0-.15-.1-.25-.249-.25s-.199.1-.199.25v1.244h-.548c-.1 0-.149 0-.199.05-.05.05-.05.1-.05.15 0 .149.1.199.25.199h.547v2.49c-.199.1-.398.199-.647.298-.1.05-.15.1-.15.15-.05.05-.05.15 0 .199.05.15.15.15.35.1.348-.15.597-.3.895-.449.25-.149.498-.298.747-.498.05 0 .05-.05.05-.05-.05.2-.1.4-.199.598-.1.15-.2.349-.299.498-.05.1-.1.2-.1.25 0 .049.05.099.1.149.05.05.15.05.2.05.099-.05.149-.1.199-.2.1-.199.199-.348.298-.548.1-.199.15-.398.2-.597.05-.2.1-.448.149-.697.05-.25.05-.548.05-.897h.05c.05.2.149.349.199.548.05.2.15.299.199.448.05.15.15.25.249.349.1.1.15.2.249.348l-.598.449c-.199.149-.398.249-.647.348-.1.05-.2.1-.249.15-.05.05-.05.149 0 .199.05.1.1.15.15.15.05 0 .149 0 .298-.05.15-.05.25-.1.349-.2.1-.1.199-.15.348-.199.15-.05.2-.15.3-.249.099-.1.198-.2.348-.299.199.15.398.349.597.498.2.15.448.299.697.399.1.05.2.1.25.1.05 0 .099-.05.149-.1.05-.1.05-.15.05-.2-.05-.05-.1-.1-.25-.149zm-2.79-2.888v-.996-.1l.05-.05h.897v1.146h-.946zm.897 1.145c-.1-.2-.249-.448-.348-.747h1.494c.05 0 .05 0 .1.05v.1c-.15.249-.25.448-.4.647-.149.2-.248.348-.447.548-.15-.15-.3-.349-.399-.598zm18.574 1.046c-.05 0-.1 0-.149.05-.05.05-.05.149-.05.298v.3c0 .049-.05.049-.1.049s-.099 0-.099-.05V20.516c0-.15-.05-.249-.1-.348-.05-.05-.149-.1-.348-.1h-.797c-.05 0-.1 0-.15.05-.05.05-.05.1-.05.15 0 .049 0 .099.05.149.05.05.1.05.15.05h.1v.398c-.05-.05-.1-.05-.15-.05-.05 0-.1.05-.15.1-.049.05-.049.1-.049.149 0 .05.05.1.1.15l.1.099c.05.05.099.05.099.1v.1c0 .198-.05.397-.1.597-.05.149-.15.298-.249.498-.1.1-.1.149-.1.199 0 .05.05.1.1.15.05.049.1.049.15.049.05 0 .1-.05.199-.15.05-.05.1-.149.15-.199.049-.1.099-.149.099-.249.05-.1.05-.199.1-.298 0-.1.05-.2.05-.25l.049.05.05.05c.1.1.15.15.249.15v.199c0 .15 0 .249.05.299 0 .1.05.149.1.199.049.05.099.1.149.1h.199c.1 0 .199 0 .249-.05.05 0 .15-.05.15-.1.049-.05.099-.15.099-.249 0-.1.05-.249.05-.398 0-.15 0-.25-.05-.3-.05.05-.1 0-.15 0zm-.846-.2l-.15-.149-.149-.15v-.746h.299v1.046zm-1.146.05v-1.045c0-.2-.05-.299-.1-.399-.099-.05-.198-.1-.397-.1h-.548c-.2 0-.299.05-.399.1-.05.05-.1.2-.1.399v1.045c0 .15.05.3.1.349.05.05.15.1.3.15l-.05.05s0 .049-.05.049l-.15.15c-.05.05-.15.149-.249.199-.05.05-.1.1-.1.149 0 .05 0 .1.05.15.05.05.1.099.15.099.05 0 .1-.05.199-.1.1-.05.15-.149.2-.199.049-.05.149-.15.198-.249.05-.05.05-.15.05-.199 0-.05-.05-.1-.1-.15h.25c-.05.05-.05.1-.05.15 0 .05.05.1.1.15.05.05.099.099.149.199.05.05.1.1.1.149.05.05.099.1.149.1.05 0 .1 0 .15-.05.049-.05.049-.05.049-.15 0-.05 0-.1-.05-.149-.05-.05-.1-.1-.15-.2-.05-.099-.099-.149-.149-.198l-.05-.05c.2 0 .3-.05.399-.1.1-.05.1-.15.1-.299zm-.348.05c0 .05-.05.05-.1.05h-.647c-.05 0-.1 0-.1-.05v-.15h.847v.15zm0-.448h-.847v-.2h.847v.2zm0-.548h-.847v-.15c0-.049.05-.049.1-.049h.647c.05 0 .1 0 .1.05v.15zm-10.856-.796h-1.992c-.1 0-.199 0-.249.05-.1 0-.1.099-.1.199 0 .05 0 .1.05.1 0 .049.05.049.1.049s.05 0 .1.05h2.141c.15 0 .2-.05.2-.2 0-.149-.1-.248-.25-.248z"/></svg>