<svg xmlns="http://www.w3.org/2000/svg" width="79" height="27" viewBox="0 0 79 27"><title>logo_ebet</title><path fill="#7E8693" fill-rule="nonzero" d="M55.575 23.437c.528-.47 1.107-.53 1.725-.321.158.053.29.161.382.317.034.058.054.057.1.012.484-.476 1.049-.531 1.644-.348.382.118.568.412.57.851.004.648 0 1.296.004 1.943 0 .085-.021.11-.097.107-.14-.006-.28-.008-.419 0-.09.006-.111-.025-.11-.123.004-.567-.006-1.135.004-1.703.008-.477-.104-.735-.69-.744-.094-.001-.19.014-.281.039-.393.105-.578.358-.582.81-.005.528-.005 1.056 0 1.584.002.114-.026.146-.126.138-.13-.01-.262-.01-.392 0-.1.008-.117-.035-.116-.135.004-.558-.007-1.116.005-1.674.012-.602-.235-.79-.743-.76-.453.024-.733.273-.8.706-.018.117-.02.237-.021.357-.002.458-.004.917 0 1.375.002.105-.024.137-.118.13-.14-.009-.28-.005-.419 0-.065.001-.095-.012-.095-.097.003-.911.002-1.823 0-2.735 0-.077.018-.11.09-.1.031.004.063 0 .095 0 .117 0 .257-.043.345.013.097.063.003.236.045.358zm-11.63.475c-.175.02-.334.039-.493.055-.034.004-.069.018-.092-.041-.192-.479-.553-.542-.945-.492-.334.042-.62.195-.746.592-.101.322-.098.652.007.97.13.397.422.531.756.575.199.026.396 0 .581-.091.197-.098.333-.262.387-.505.02-.084.05-.104.121-.093.158.023.316.037.479.056-.084.428-.311.71-.643.868-.568.27-1.143.26-1.7-.04-.481-.26-.678-.732-.655-1.33.023-.597.255-1.041.755-1.256.54-.232 1.084-.25 1.623.004.282.132.478.369.564.728zM31.21 22c0 .304.008.587-.004.869-.005.13.039.158.16.15.15-.011.302 0 .453-.004.07-.002.093.016.096.09.012.3.015.3-.29.3-.101 0-.202.007-.302-.002-.099-.01-.115.03-.115.118.004.546 0 1.093.003 1.64.002.27.088.352.362.359h.015c.355.005.37.02.41.366.007.05-.003.073-.056.079-.321.037-.643.064-.96-.024-.315-.087-.451-.242-.458-.563-.012-.596-.016-1.192-.008-1.788.002-.162-.05-.21-.2-.186-.04.006-.08 0-.12 0-.196 0-.196 0-.196-.196 0-.192 0-.192.2-.192.312 0 .34-.003.304-.307-.038-.327.073-.508.393-.582.1-.024.194-.078.313-.127zm4.281 4.723c-.101-.004-.235.029-.296-.024-.064-.054-.008-.193-.02-.293-.014-.105.017-.143.129-.134.147.011.295.005.443.002.057-.002.086.012.077.074-.003.012 0 .025 0 .037-.009.108.046.254-.024.316-.06.052-.203.01-.309.01v.012zm-17.974-1.14c.554-.027.902-.484.876-1.15-.025-.642-.398-1.027-.969-1-.547.027-.901.479-.877 1.118.027.691.376 1.063.97 1.032zm.835-2.344c.721.392.875 1.637.286 2.262-.49.522-1.073.613-1.697.373-.14-.054-.258-.159-.381-.3-.003.056-.005.083-.005.11-.003.252-.003.254-.227.25-.103-.001-.24.055-.3-.024-.05-.066-.018-.22-.018-.336 0-1.14.002-2.279-.004-3.418 0-.133.032-.165.14-.154.111.01.226.009.338 0 .087-.007.113.021.112.126-.006.415-.003.832-.003 1.253.017-.002.031 0 .039-.007.548-.478 1.138-.452 1.72-.135zm-8.734.851c-.022.096-.01.125.076.123.298-.006.596-.002.895-.002h.823c-.026-.305-.148-.516-.365-.645-.273-.162-.558-.181-.848-.09-.274.085-.495.254-.58.614zm.07.526c-.114-.003-.12.049-.101.158.07.39.279.622.58.737.24.091.484.093.728.016.202-.065.362-.2.47-.415.035-.07.07-.09.134-.081.134.02.268.036.403.045.071.006.077.03.047.105-.133.327-.35.542-.625.656-.533.22-1.072.224-1.598-.025-.442-.209-.7-.6-.724-1.198-.024-.612.168-1.087.624-1.356.57-.338 1.161-.343 1.738-.02.436.243.642.684.636 1.272 0 .089-.02.113-.094.112-.374-.005-.748-.003-1.121-.003-.366 0-.732.007-1.098-.003zm13.922-.487c-.011.059-.004.086.055.086.58-.003 1.16-.002 1.748-.002-.048-.33-.126-.496-.331-.621-.406-.249-.811-.236-1.202.056-.146.11-.231.277-.27.48zm1.76.982c.027-.055.054-.084.11-.076.163.023.325.038.497.057-.069.239-.19.414-.346.554-.234.21-.504.298-.789.333-.363.045-.722.023-1.069-.13-.489-.218-.753-.651-.772-1.254-.02-.641.206-1.12.684-1.374.546-.292 1.106-.297 1.652 0 .443.24.661.674.663 1.272 0 .111-.027.134-.114.134-.731-.005-1.462.001-2.194-.007-.126-.002-.124.056-.104.167.072.392.285.62.584.735.233.087.47.09.707.018.21-.064.376-.202.49-.429zm24.387.446c.417-.098.654-.442.683-.984.027-.533-.174-.917-.568-1.078-.12-.049-.243-.072-.37-.07-.645 0-.99.46-.934 1.255.024.348.162.605.412.762.248.156.51.178.777.115zm.616-2.31c.423.24.63.67.627 1.258-.003.621-.222 1.058-.686 1.299-.263.137-.538.197-.908.196-.242-.003-.56-.066-.85-.27-.394-.274-.563-.703-.556-1.257.007-.546.187-.965.585-1.203.589-.352 1.193-.36 1.788-.023zM14.126 8.485c-.007-.078 0-.159.001-.238 0-.034-.003-.068-.004-.102-.02-.048 0-.102-.017-.15-.06-.572-.228-1.097-.522-1.568l.002-.007.048-.002c-.025-.042-.05-.086-.076-.127-.142-.22-.327-.393-.504-.573-.296-.298-.623-.525-1.023-.602-.298-.058-.599-.09-.897-.139-.53-.085-1.052-.052-1.571.086-.577.152-1.106.434-1.615.77-.105.068-.227.108-.302.227-.949.65-1.654 1.583-2.334 2.582h1.936c.028-.002.056-.007.085-.007 1.469-.008 2.937-.015 4.406-.021.758-.003 1.517-.006 2.276-.005.084 0 .12-.022.11-.124zm3.845-1.588c.046.45.032.9-.003 1.35-.015.257-.027.515-.085.766-.01.043-.008.09-.012.134-.034.344-.097.68-.174 1.014-.068.363-.153.72-.26 1.071-.068.306-.168.6-.26.897-.055.217-.055.217-.253.217l-5.432.019c-2.222.008-4.444.018-6.665.028-.218 0-.436.008-.653.006-.071 0-.098.022-.11.107-.022.174-.041.349-.05.524-.006.336-.001.67.033 1.004.073.39.169.77.343 1.119l.095.192c.21.318.45.6.736.832.118.096.244.168.374.233 1.204.554 2.42.473 3.642.098l.13-.04c.626-.231 1.213-.556 1.775-.942.24-.192.493-.364.722-.575.05-.046.108-.036.164-.037l3.306-.028c.025 0 .05-.003.074-.005.386 0 .772-.002 1.158-.001.043 0 .108-.03.125.017.02.053-.018.115-.048.165-.015.028-.035.052-.053.077l-.409.454c-.27.331-.551.65-.846.953-.312.352-.64.681-.988.984-.458.442-.954.823-1.463 1.183-.101.072-.206.136-.308.204-.445.318-.917.578-1.392.832-.215.115-.429.234-.655.32-.586.296-1.194.517-1.82.67-1.175.285-2.362.319-3.552.187-.834-.093-1.638-.335-2.384-.785-.054-.033-.105-.071-.157-.108-.475-.297-.89-.676-1.239-1.15-.324-.403-.585-.855-.785-1.352-.163-.348-.281-.715-.365-1.097-.091-.35-.156-.705-.176-1.07l-.003-.049v-.002c-.025-.055-.022-.114-.019-.173-.027-.349-.045-.698-.008-1.048.003-.36.037-.715.1-1.066.026-.326.095-.643.173-.957.079-.422.186-.834.322-1.236.04-.21.122-.404.189-.604.075-.227.15-.454.251-.668.027-.148.102-.272.158-.405.12-.28.236-.563.386-.826.123-.289.28-.555.433-.824.129-.227.259-.453.409-.663.241-.387.503-.754.787-1.101.284-.371.584-.724.91-1.045.372-.407.768-.777 1.187-1.117.594-.515 1.224-.961 1.895-1.332.918-.533 1.887-.894 2.902-1.09.937-.18 1.878-.205 2.82-.081.946.124 1.846.418 2.659 1.005.176.127.33.287.495.43.174.117.305.29.441.454.248.297.47.619.644.98.233.426.426.873.525 1.367.002.013.012.023.019.034.12.38.175.776.22 1.173.014.125.036.25.025.377zM59.433 0H60c-.13.172-.25.328-.37.484l-.525.71c-.436.59-.873 1.178-1.31 1.766-.19.272-.385.542-.593.797-.027.045-.068.025-.102.025l-7.57.03c-.025 0-.05-.003-.074-.005l-2.427.011h-.99c-.317.005-.635.013-.952.017-.232.003-.463.005-.694 0-.081-.002-.12.022-.152.115-.243.717-.493 1.43-.743 2.143-.017.051-.022.112-.068.147-.024.188-.108.353-.166.527-.109.325-.226.647-.339.97l-.069.2c.404.002.808.005 1.212.004 1.59-.004 3.182-.008 4.773-.014 1.277-.004 2.554-.012 3.83-.018.046 0 .091.003.137.005h1.68c-.093.18-.238.312-.346.476l-.169.23c-.176.236-.35.474-.527.71l-1.308 1.766-.103.137c-.099.138-.199.276-.297.416-.027.038-.058.045-.097.045l-3.046.009c-.008 0-.016-.004-.024-.006-.321.03-.644.017-.965.018-1.938.008-3.875.012-5.813.018-.275 0-.274.001-.375.289l-1.272 3.594-.172.484-.023.06c.032.056.082.027.123.028.39.003.78.003 1.168.004l2.035-.002 1.796-.014c1.073-.007 2.146-.012 3.22-.017.032 0 .065.003.098.004l2.134-.009 4.924-.024c.037 0 .074.003.112.004h.6l-.398.519c-.221.322-.454.634-.695.938-.246.337-.49.675-.737 1.01-.282.383-.566.764-.85 1.145-.015.021-.026.05-.055.051-.035.103-.103.12-.195.121l-8.31.03c-.174.001-.347-.001-.52-.002-.289.032-.578.013-.866.015-.84.005-1.678.004-2.517.004-.711.003-1.422.005-2.134.01l-4.08.023c-.046 0-.091-.003-.137-.005l-.424.001c-.284.017-.285.017-.175-.288l.03-.076c.234-.67.467-1.34.702-2.008.195-.555.39-1.11.587-1.664.014-.04.032-.076.049-.112.015-.081.043-.156.077-.227l.011-.033c.229-.666.456-1.332.705-1.988.011-.074.028-.144.07-.204l.007.006-.007-.006c.228-.653.454-1.304.683-1.956.169-.481.34-.961.51-1.441.016-.044.035-.085.053-.127.078-.263.17-.519.271-.77.129-.405.27-.803.423-1.195.161-.499.334-.992.52-1.478.187-.566.384-1.128.594-1.682.071-.242.155-.478.25-.709.014-.08.038-.155.078-.222-.002-.026-.006-.051.021-.063.133-.401.269-.801.423-1.193.105-.408.33-.725.6-.999C41.399.876 42.193.436 43.03.091c.053-.025.108-.033.166-.034 3.113-.01 6.226-.023 9.34-.035.168 0 .338.003.507.005.048-.02.098-.011.147-.011h.1c.198-.006.395-.005.592-.006.85-.003 1.698-.003 2.547-.004h.374L59.433 0zm18.39.44h.551c-.064.153-.192.231-.261.368l-.361.492-.102.143-1.361 1.87-.65.9c-.025.036-.051.053-.093.053l-2.303.001c-.044.02-.09.01-.135.01l-.415.001c-.108.002-.216.006-.324.006-.872.004-1.743.003-2.614.004h-.224c-.103-.02-.143.047-.18.152-.223.624-.454 1.245-.68 1.868-.006.017-.006.037-.008.056l-.59 1.67c-.109.313-.216.626-.326.938-.007.021-.025.037-.038.055-.07.309-.194.593-.295.887-.181.526-.368 1.05-.552 1.574-.194.56-.387 1.12-.583 1.68-.036.102-.088.197-.107.307l-1.554 4.577c-.25.778-.492 1.56-.83 2.294-.045.1-.086.207-.173.272-.018.008-.037.022-.055.022h-1.654l-2.417.002h-.594l.154-.255.192-.382c.248-.554.466-1.125.685-1.695.235-.693.468-1.388.722-2.072.185-.54.367-1.079.553-1.617.15-.432.305-.862.458-1.292.012-.082.042-.156.078-.226-.003-.025.004-.046.021-.06.185-.541.368-1.082.555-1.622.125-.362.256-.722.384-1.083.157-.496.331-.984.508-1.47.236-.695.468-1.39.724-2.075.176-.517.352-1.035.53-1.551.095-.278.195-.555.292-.832.042-.1-.013-.093-.071-.093-.468.003-.936.004-1.403.005-.045 0-.09-.003-.135-.005l-2.24.01c-.488.002-.976.006-1.464.01-.032 0-.064.006-.097.009-.028.03-.062.04-.098.044-.039.005-.071-.01-.099-.041-.05-.012-.099-.013-.148 0-.245-.001-.49 0-.734-.005-.018 0-.096.047-.056-.052l.228-.313.17-.232.527-.725c.456-.639.915-1.276 1.385-1.9.14-.21.285-.414.443-.605.168-.041.338-.007.507-.02.048-.003.097-.003.145-.006h.273l1.358.003c.057 0 .114.003.171.005l2.243-.011 7.766-.034 4.315-.02c.029 0 .057.004.086.006zM33.744 4.937c.015-.04.006-.084.012-.126l-.092-.019c-.032-.036-.071-.042-.112-.04-.99-.01-1.98.026-2.97.018-.709-.005-1.419-.005-2.129.003-.056.012-.113.008-.17.008-.818.003-1.637-.005-2.455.004-.056.008-.091.05-.12.102-.17.495-.334.992-.504 1.486-.207.59-.4 1.184-.604 1.775-.073.25-.188.484-.228.749.003.016.009.03.018.043.115.062.237.018.355.031 1.425-.017 2.85.018 4.276-.022 1.082-.03 2.164-.002 3.247-.007.015-.002.029-.007.042-.013.04-.024.054-.068.071-.11.069-.177.126-.358.19-.536.177-.506.354-1.012.533-1.516.011-.036.021-.072.034-.107.205-.573.408-1.147.606-1.723zm-2.751 7.816c.026-.076-.031-.051-.057-.064-.081-.037-.166-.038-.252-.037-1.004.014-2.007 0-3.012.021-1.458.03-2.917.007-4.375.008-.067 0-.14-.02-.2.039-.063-.005-.077.054-.094.106-.067.193-.132.386-.2.579L22 15.716c-.046.022-.062.072-.077.12-.09.292-.197.574-.294.86-.024.065-.048.13-.065.196-.021.082-.086.152-.055.25-.042.151.072.058.105.091.073.054.155.05.236.05 1.313-.001 2.625.002 3.939-.027.66-.014 1.321.002 1.982-.005.298-.02.597-.004.895-.01.246-.004.492.013.738-.01.055-.002.094-.032.117-.092.141-.405.272-.814.42-1.215.33-.967.66-1.934.996-2.898.03-.088.057-.176.056-.273zM39 2.656l-.008.057c.004.06.008.12-.02.175l-.004.052c-.01.159-.076.3-.097.455-.019.068.058.18-.065.202l-.276.826c-.07.243-.155.48-.244.713-.216.643-.444 1.279-.68 1.911l-.522 1.483c-.007.018-.01.036-.013.054-.007.057.031.143-.065.146-.007.007-.01.016-.008.026-.083.132-.143.283-.243.401l-.137.2c-.437.507-.963.844-1.533 1.097-.018.007-.038.01-.058.017-.305.147-.621.239-.949.28l-.07.009c-.07.036-.146.019-.219.028l-.023.048c.106.009.212.02.316.054.007-.003.015-.003.022.005.198.047.396.098.587.173.426.167.782.428.906.979.015.063.024.128.035.192-.002.213-.014.423-.073.627l.01-.002c-.263.93-.592 1.83-.908 2.737-.017.048-.036.094-.054.142l-.585 1.654-.529 1.485c-.114.22-.245.426-.392.617-.143.14-.272.3-.436.41-.3.268-.64.446-.99.602-.28.126-.56.25-.858.311-.159.066-.325.085-.49.108l-.113.009h-.001c-.04.027-.084.026-.128.02-.729.009-1.458.023-2.187.025-1.677.005-3.354.006-5.031.008-.037 0-.073-.003-.11-.004l-1.978.007-2.502.005c-.016 0-.032-.004-.048-.006l-1.999.001c-.137 0-.275-.004-.412-.006H15l.472-.342.368-.352.248-.298c.5-.74.793-1.602 1.067-2.476.014-.044.032-.084.049-.127.097-.31.193-.62.292-.93l.787-2.446c.01-.035.028-.067.042-.1.16-.505.32-1.01.482-1.516.194-.606.39-1.212.586-1.818.007-.021.018-.04.027-.061.101-.356.214-.707.34-1.053.167-.559.343-1.113.536-1.66l.478-1.51c.058-.18.12-.357.181-.536.102-.357.214-.71.341-1.055.152-.478.295-.96.458-1.432.106-.308.109-.595-.042-.879-.11-.175-.249-.318-.391-.455l-.026-.025c-.211-.159-.433-.296-.655-.432-.29-.134-.578-.273-.876-.378-.01-.006-.022-.01-.031-.017-.014-.012-.01-.023.005-.024.032-.002.065 0 .097 0 1.958-.007 3.916-.011 5.875-.019 2.18-.008 4.362-.019 6.543-.028.036 0 .072.004.108.007.054-.01.108-.012.16-.012.238-.013.477-.003.715-.004 1.168-.007 2.336-.008 3.505-.008.088 0 .179-.015.265.024.547.034 1.054.217 1.504.588.24.199.417.454.462.809.029.055.024.115.02.174l.008.058z"/></svg>