<svg xmlns="http://www.w3.org/2000/svg" width="82" height="26" viewBox="0 0 82 26"><title>logo_sy</title><path fill="#7E8693" fill-rule="nonzero" d="M20.128 22.406c.865-1.072 1.917-2.876 1.917-4.661 0-1.053-.3-1.128-.827-.977-.583.169-2.086.94-2.086.94s-2.744 1.07-4.53.995c-1.785-.075-3.74-.977-3.758-2.63 0-1.655 2.537-3.515 2.537-3.515s.977-.695 1.955-1.24c2.931-1.692 8.55-4.85 8.851-5.62.15-.563-1.108-1.804-2.086-5.224-.3-.902-1.146-.395-1.71.507-.564.902-1.804 2.556-2.48 2.988-.583.376-.508.17-.696.038 0 0-.545-1.597-.883-2.95-.395-1.542-1.842-.865-1.898-.132-.057.733-1.974 2.593-4.924 4.811S-.056 10.077 0 15.057c0 1.823.527 3.177 1.297 4.135 1.504 1.88 3.928 2.33 5.225 1.992 0 0 .169-.094-.301-.583-.47-.488-2.687-3.063-2.669-4.999 0-.864.733-4.999 7.067-7.103 0 0-5.394 3.815-5.394 7.742 0 3.195 3.627 5.225 3.627 5.225s-.376.489-.883.902c-.395.32-.902.583-1.071.62-.358.113-1.015.132-.921.752.094.714.845 1.466 2.8 1.503h2.856c.057 0 .094-.075.057-.112l-1.41-1.353s2.312-.771 2.143-1.936h2.65s-.846 1.766-3.007 2.349c0 0-.545 1.052 1.71 1.729h7.93s.283-1.41-1.465-1.41h-1.616s-.583-.263-.188-.714c.188-.15.92-.432 1.691-1.39zm9.152-2.124c.339-.17.545-.338.62-.526.076-.188.057-.451-.037-.79-.113-.394-.244-.808-.395-1.259-.15-.45-.32-.902-.488-1.39.545-.902.996-1.786 1.353-2.669s.676-1.842.92-2.857c.095-.357.132-.639.132-.864 0-.226-.056-.414-.15-.545-.094-.132-.226-.226-.395-.282-.169-.056-.376-.075-.639-.075h-3.646c-.3 0-.526.075-.639.207-.131.131-.206.338-.263.62-.056.244-.037.432.057.582.075.15.263.226.545.226h3.194c.094 0 .15.019.17.037.037.038.018.094 0 .207-.357 1.26-.808 2.462-1.372 3.608-.226-.545-.451-1.033-.696-1.522-.244-.47-.47-.92-.676-1.353-.113-.225-.282-.357-.47-.413-.188-.057-.395-.02-.62.094-.282.169-.451.338-.526.545-.076.206-.02.47.131.789.32.601.62 1.203.902 1.842.282.639.545 1.278.808 1.935-.45.658-.94 1.26-1.466 1.86-.545.584-1.165 1.166-1.879 1.749-.338.282-.526.507-.601.714-.075.207-.02.413.131.658.132.206.301.3.489.32.188.018.432-.095.714-.34.733-.6 1.353-1.164 1.88-1.672.507-.526.977-1.052 1.39-1.578.094.281.17.545.263.789.075.263.15.507.207.733.094.338.244.545.432.639.207.094.395.094.62-.019zm6.522-1.26c-.301-.431-.602-.958-.902-1.578.733-.958 1.334-1.954 1.823-3.026.488-1.07.94-2.217 1.334-3.457.113-.358.169-.64.169-.865 0-.226-.038-.413-.113-.545-.075-.132-.206-.226-.376-.282-.169-.056-.376-.075-.639-.075h-4.68c-.3 0-.525.075-.657.225-.131.15-.225.358-.263.602-.038.225-.019.395.038.564.075.15.225.244.47.263-.02.658-.02 1.259 0 1.842.018.582.075 1.146.15 1.69.075.546.188 1.072.3 1.58.132.507.282 1.014.49 1.503-.47.545-.978 1.034-1.523 1.485-.545.45-1.203.92-1.936 1.41-.357.225-.564.431-.62.62-.056.206-.038.413.094.657.131.226.3.338.526.32.226-.02.451-.113.714-.282.752-.508 1.39-.959 1.936-1.391.545-.432 1.034-.883 1.503-1.334.301.545.602 1.052.902 1.503.301.451.602.846.921 1.165h-.018c.225.263.432.376.62.376s.394-.094.62-.3l-.019.037c.263-.207.414-.432.432-.658.02-.244-.094-.488-.338-.77-.338-.432-.658-.846-.958-1.278zm-1.56-3.25c-.451-1.447-.64-3.101-.602-4.943h2.613c.169 0 .206.075.15.263-.32.996-.658 1.86-.996 2.594-.357.751-.752 1.447-1.165 2.086zm11.407 3.533c.076.075.188.113.357.113.17 0 .301-.038.414-.113.113-.075.188-.226.244-.432l.489-2.556c.037-.226.037-.414.037-.545-.018-.15-.056-.264-.112-.339-.057-.094-.17-.15-.301-.169-.132-.037-.3-.056-.507-.056h-1.598c-.432 0-.733.075-.92.225-.189.15-.34.433-.414.865l-.508 2.63c-.037.208-.018.358.057.433.075.075.206.113.394.113.17 0 .301-.038.414-.113.113-.075.188-.225.225-.432l.489-2.575c.019-.056.038-.094.094-.094h1.541c.038 0 .056.038.038.094l-.489 2.519c-.038.206-.019.338.056.432zm4.905-4.623c.17-.02.301-.057.414-.132.113-.075.188-.17.263-.32.056-.15.113-.338.17-.563l.055-.339c.057-.244.076-.432.076-.582 0-.15-.038-.263-.113-.32-.075-.075-.188-.112-.357-.131-.15-.019-.357-.038-.62-.038h-8.288c-.245 0-.451.019-.62.038-.15.019-.282.075-.395.15-.094.075-.188.188-.244.32-.057.15-.113.32-.15.545l-.076.357c-.037.225-.056.413-.056.545 0 .131.037.244.113.32.075.074.187.13.338.15.15.018.357.037.62.037h8.269c.244-.019.432-.019.601-.037zm-.827-.959h-7.442c-.094 0-.15 0-.169-.019-.019-.018-.019-.056-.019-.112l.038-.188c.019-.057.038-.113.056-.132.02-.019.094-.038.188-.038h7.405c.131 0 .207.02.225.038.02.038.02.094.02.17l-.02.093c-.018.075-.037.132-.056.15-.056.02-.132.038-.226.038zm-6.69 2.518c.038-.225.056-.413.075-.563 0-.15-.037-.263-.094-.357-.056-.094-.169-.15-.3-.188-.132-.038-.32-.057-.527-.057H40.67c-.395 0-.676.075-.883.226-.207.15-.338.45-.432.902l-.245 1.259c-.075.432-.169.808-.244 1.109-.075.32-.17.582-.263.827-.094.244-.207.47-.32.657-.112.188-.244.376-.413.564-.207.263-.338.451-.376.583-.038.131.038.263.207.395.169.131.357.169.564.131.206-.056.413-.207.62-.47.206-.263.376-.507.526-.77.15-.263.282-.545.413-.884.076.02.15.02.245 0 .094-.018.188-.056.282-.094.15-.075.282-.131.394-.169.113-.056.226-.112.357-.188.02 0 .038-.018.076-.037l-.245 1.221c-.019.113-.056.17-.113.188-.056.02-.15 0-.3-.018-.207-.057-.395-.057-.545-.02-.15.038-.3.189-.414.433-.188.357-.094.583.263.714.132.038.282.056.47.075.188.02.376.02.564.02.414 0 .714-.114.92-.358.208-.244.358-.545.396-.92l.864-4.21zm-1.278-.018l-.376 1.954c-.131.019-.244.057-.357.132-.113.075-.263.15-.432.244-.17.094-.32.15-.451.207-.019.019 0-.038.019-.113.018-.094.056-.226.094-.432.037-.188.075-.395.131-.62.038.018.094.056.132.094.037.037.094.056.131.093.094.076.207.113.339.113.112 0 .244-.056.357-.206.131-.17.188-.301.169-.395-.038-.094-.113-.207-.226-.282-.169-.113-.338-.226-.545-.32-.018 0-.056-.018-.075-.037-.019 0-.037-.019-.056-.019l.075-.395c.019-.094.038-.131.075-.15.019-.019.075-.038.132-.038h.789c.075 0 .132.02.132.038-.038.019-.038.056-.057.132zm24.77 1.221c-.075-.113-.245-.169-.508-.169h-.845l1.184-6.089h.601c.263 0 .451-.056.564-.207.113-.131.207-.3.244-.526.038-.207.019-.376-.037-.507-.076-.132-.245-.207-.49-.207h-.6l.15-.77c.056-.264 0-.433-.132-.546-.131-.112-.32-.169-.545-.169-.188 0-.376.057-.564.17-.187.112-.3.281-.338.544l-.15.77H61.98l.15-.77c.056-.263 0-.432-.131-.545-.132-.112-.32-.169-.545-.169-.188 0-.376.057-.564.17-.188.112-.3.281-.357.544l-.15.77h-.47c-.264 0-.47.076-.583.208-.113.131-.188.3-.244.507-.038.226-.038.395.037.526.075.132.226.207.508.207h.47l-1.185 6.09h-.902c-.263 0-.45.055-.563.15-.113.112-.207.3-.264.563-.037.245-.037.414.038.545.075.132.244.188.489.188h7.968c.244 0 .432-.075.564-.207.131-.131.225-.32.263-.545.113-.225.094-.413.019-.526zm-2.913-.15h-3.082l.206-1.053h3.082l-.206 1.053zm.47-2.443h-3.082l.225-1.165h3.082l-.225 1.165zm.488-2.519h-3.082l.226-1.146H64.8l-.226 1.146zm.395 7.443c-.207-.245-.432-.451-.658-.658-.169-.15-.357-.226-.582-.226-.226-.018-.452.075-.64.263-.15.17-.244.32-.263.508-.018.169.057.338.226.507.17.17.357.357.564.583.206.225.376.45.526.676.132.188.282.301.489.339.206.037.413-.038.62-.226.188-.169.32-.32.376-.488.056-.17.018-.339-.113-.545-.132-.245-.32-.49-.545-.733zm7.649-3.872c0-.188-.038-.338-.132-.45-.094-.114-.225-.189-.394-.226-.188-.038-.414-.057-.715-.057h-1.259l.282-1.447h1.598c.282 0 .507-.019.695-.075.188-.038.338-.132.451-.244.132-.113.226-.263.3-.47.076-.207.132-.451.207-.77l.602-3.14c.056-.281.037-.488-.075-.6-.094-.113-.282-.17-.527-.17-.206 0-.394.057-.563.17-.17.112-.282.319-.339.6l-.526 2.707c-.037.17-.075.282-.169.338-.075.075-.188.094-.357.094h-1.015l.507-2.63c.057-.283.038-.49-.037-.621-.075-.15-.244-.207-.526-.207-.263 0-.47.075-.62.207-.132.15-.226.357-.282.62l-1.26 6.446c-.112.583-.225 1.11-.357 1.56-.131.451-.263.846-.394 1.203-.132.357-.282.658-.414.94-.15.282-.3.526-.432.751-.226.32-.338.564-.357.752-.019.188.075.338.3.489.433.32.846.15 1.26-.489.3-.47.582-1.052.902-1.766.3-.715.582-1.617.827-2.707h.79c.168 0 .281.038.337.094.057.057.057.207.02.414l-.677 3.476c-.057.301-.057.508.037.62.075.113.282.17.583.17.244 0 .45-.057.582-.17.132-.112.226-.319.282-.62l.79-4.078c.037-.282.075-.526.075-.714zM81.6 9.795c-.132-.263-.413-.394-.902-.394H78.65c.17-.357.245-.62.188-.79-.056-.169-.188-.3-.432-.376-.282-.075-.507-.075-.676.02-.17.093-.358.338-.545.732-.038.057-.057.113-.094.188-.038.075-.076.15-.132.226h-.94c-.488 0-.827.131-1.052.394-.207.263-.376.64-.47 1.147l-.752 3.871c-.094.508-.075.883.038 1.109.132.225.432.338.883.338h.64c-.208.263-.47.564-.771.921-.301.357-.602.677-.921.959h-.47c-.282 0-.489.056-.639.188-.15.131-.244.319-.3.6-.057.283-.038.49.075.602.093.113.3.17.563.17h3.74l-.282 1.446c-.056.32-.037.545.075.658.113.113.282.17.545.17.226 0 .414-.057.564-.189.15-.131.263-.338.32-.639l.282-1.447h1.729c.263 0 .47-.056.62-.188.15-.131.244-.319.3-.6.057-.283.038-.49-.056-.602-.094-.113-.282-.17-.545-.17h-1.729l.226-1.165c.075-.357.018-.582-.17-.714h.903c.47.019.808-.094 1.014-.3.226-.207.376-.583.49-1.11l.75-3.908c.114-.508.095-.902-.018-1.147zm-5.713 1.523c.037-.17.075-.282.131-.376.057-.094.188-.132.357-.132h1.015l-.244 1.297h-1.41l.15-.79zm-.583 3.025l.15-.827h1.335c-.056.188-.15.395-.244.658s-.207.47-.301.658h-.64c-.262 0-.375-.17-.3-.489zm1.823 2.613l-.225 1.165h-1.466c.263-.263.526-.564.808-.921.282-.357.507-.677.695-.959h.677c-.245.132-.414.358-.489.715zm2.387-2.556c-.019.112-.056.206-.113.3-.056.094-.15.132-.32.132h-1.39c.075-.188.15-.395.263-.658.094-.263.17-.488.226-.658l1.503-.018-.17.902zm.62-3.195l-.169.883-1.41.019.245-1.297 1.052.019c.132 0 .226.038.263.094.038.038.038.131.02.282zm-20.41 7.649c-.225 0-.45.131-.714.376-.169.169-.413.357-.733.582-.3.226-.657.47-1.07.714-.283.17-.414.339-.452.508-.019.169 0 .357.075.545.094.188.245.282.451.282.207 0 .47-.076.752-.245.357-.225.714-.45 1.071-.714.357-.263.677-.526.94-.79.226-.225.338-.413.357-.563.019-.17-.056-.32-.188-.489-.094-.15-.263-.225-.488-.206zm-13.568 1.86c.019-.131-.019-.244-.094-.376-.075-.112-.17-.225-.263-.357-.094-.131-.226-.282-.395-.45-.113-.132-.225-.189-.338-.189.094-.188.15-.413.206-.657.057-.245.113-.49.15-.696l.151-.733c.057-.244.057-.413.019-.526-.038-.094-.17-.15-.395-.15s-.376.056-.45.15c-.076.113-.132.282-.189.526l-.15.733c-.075.357-.15.677-.263.94-.094.282-.226.507-.357.714-.132.207-.3.395-.47.545-.188.15-.376.3-.601.413-.32.17-.508.339-.602.49-.094.15-.094.3 0 .469.113.17.226.244.395.244.15 0 .376-.075.639-.244.545-.357 1.015-.827 1.41-1.39.112.13.225.262.3.375.075.113.17.263.263.432.188.339.432.357.77.094.17-.112.245-.244.264-.357zm5.356-2.161c-.207 0-.357.056-.451.15-.094.094-.17.301-.244.64l-.17.845c-.037.207-.075.338-.094.376-.018.037-.056.056-.112.056-.076 0-.113-.019-.132-.056 0-.038 0-.132.038-.282l.808-4.135c.075-.413.056-.676-.075-.789-.132-.131-.414-.188-.808-.188h-2.105c-.226 0-.395.038-.489.113-.094.075-.17.207-.207.395-.037.188-.018.32.038.394.056.075.225.113.47.113h.131l-.15.808c-.226-.169-.451-.15-.677.038-.169.131-.263.263-.282.394-.018.132.038.301.188.47.076.113.17.226.245.32.075.113.15.206.206.32-.112.45-.263.864-.47 1.22-.206.358-.47.696-.789 1.034-.244.264-.394.47-.413.602-.019.131.056.282.225.432.15.132.32.17.527.094.206-.075.45-.263.751-.601.207-.245.395-.47.545-.715.15-.244.301-.507.414-.77.188.17.394.15.658-.038.075-.056.15-.131.206-.206l-.094.507c-.075.376-.112.658-.094.883 0 .226.038.395.132.508.075.113.207.206.357.244.17.038.357.056.583.056.244 0 .45-.018.62-.075.169-.056.32-.15.45-.32.132-.168.245-.413.339-.732.094-.32.207-.752.32-1.316.056-.3.056-.507 0-.601-.038-.132-.17-.188-.395-.188zm-1.598-2.124l-.526 2.744c-.019-.131-.075-.263-.15-.413-.057-.113-.113-.207-.17-.282-.056-.094-.112-.17-.168-.244l.394-2.068h.47c.056 0 .094.02.132.038.037.037.037.113.018.225zm7.236-.15c.169.038.376 0 .658-.094.206-.094.357-.263.413-.451.056-.207.038-.489-.056-.864-.038-.17-.094-.32-.15-.47-.057-.15-.113-.282-.189-.433-.075-.15-.15-.319-.225-.488-.075-.188-.17-.395-.263-.62h.658c.3 0 .545-.076.676-.226.132-.15.244-.338.3-.582.057-.245.02-.452-.056-.602-.094-.169-.281-.244-.601-.244h-.846l.395-2.049c.056-.3.038-.507-.056-.639-.094-.131-.282-.188-.564-.188-.244 0-.451.057-.583.188-.131.132-.244.339-.3.64l-.395 2.048h-.902c-.245 0-.47.075-.658.207-.188.15-.3.357-.357.639-.056.244 0 .432.132.582.131.15.319.226.563.226h.79c-.282.601-.64 1.221-1.072 1.879-.432.658-.864 1.278-1.296 1.86-.245.32-.376.583-.414.771-.037.188.019.357.188.489.17.15.357.188.602.094.244-.094.47-.32.714-.696.15-.188.282-.376.394-.582.113-.207.226-.433.357-.677l-.958 4.962c-.056.3-.038.507.056.639.094.131.282.187.545.187.263 0 .47-.056.602-.187.131-.132.225-.339.282-.64l1.127-5.807c.019.094.038.188.075.301.02.113.076.263.132.451.038.207.132.338.282.376zm-14.94-5.995h10.467c.226 0 .395-.038.507-.113.113-.075.188-.207.245-.432.037-.207.019-.357-.075-.432-.094-.075-.245-.113-.47-.113H47.81c0-.094 0-.188-.02-.263-.018-.075-.018-.15-.037-.207-.037-.225-.131-.376-.282-.45-.131-.076-.357-.095-.639-.039-.357.076-.582.188-.695.32-.113.132-.132.3-.075.507 0 .038 0 .057.019.076 0 .018.018.037.018.056h-5.487c-.245 0-.414.038-.526.113-.113.075-.188.206-.226.432-.038.225-.019.357.038.432.075.075.225.113.488.113h.376l-.113.564c-.037.188-.056.338-.037.47.019.131.056.225.131.281.075.076.207.132.357.15.17.038.376.057.64.057h9.828c.226 0 .395-.037.508-.094.112-.056.188-.206.244-.45.038-.226.019-.377-.075-.433-.094-.038-.263-.075-.489-.075H42.38c-.131 0-.206-.019-.225-.038-.019-.019-.019-.075 0-.15l.056-.282z"/></svg>