<svg xmlns="http://www.w3.org/2000/svg" width="81" height="20" viewBox="0 0 81 20"><title>logo_pg</title><path fill="#7E8693" fill-rule="nonzero" d="M15.24 13.336h1.662v-1.661H15.24v1.66zM11.383 1.954h1.66V.294h-1.66v1.66zm.049 1.905h1.66V2.2h-1.66v1.66zm.049 9.477h1.66v-1.661h-1.66v1.66zm11.04-1.954h1.66V9.72h-1.66v1.66zM13.286 3.81h1.66V2.15h-1.66v1.66zm.049 1.905h1.66v-1.66h-1.66v1.66zm0 7.62h1.66v-1.66h-1.66v1.66zm-5.667 1.906H9.33V13.58H7.67v1.66zM5.715 1.954h1.661V.294h-1.66v1.66zm5.765 13.287h1.66V13.58h-1.66v1.66zm-3.81-1.905h1.66v-1.661H7.67v1.66zm1.856-9.477h1.66V2.2h-1.66v1.66zm.048 11.382h1.661V13.58h-1.66v1.66zM7.62 3.859h1.661V2.2h-1.66v1.66zm5.716 7.572h1.66V9.77h-1.66v1.66zm1.856-7.62h1.66V2.148h-1.66V3.81zm.049 7.62h1.66V9.77h-1.66v1.66zm1.905-3.81h1.66V5.96h-1.66v1.66zm0 1.905h1.66V7.865h-1.66v1.66zm-.049-3.81h1.661V4.053h-1.66v1.661zm5.471 7.571h1.661v-1.66h-1.66v1.66zm0 1.905h1.661v-1.66h-1.66v1.66zm-5.422-3.81h1.66V9.72h-1.66v1.66zm5.373-3.81h1.661V5.91h-1.66v1.66zm-7.278 1.954h1.66V7.865h-1.66v1.66zm9.232 7.522h1.661v-1.66h-1.66v1.66zM15.241 7.62h1.66V5.96h-1.66v1.66zM5.715 3.86h1.661V2.197h-1.66V3.86zm9.477 1.855h1.66v-1.66h-1.66v1.66zm7.327 3.762h1.661V7.816h-1.66v1.66zM3.517.342h-1.66v1.66h1.66V.343zM.097 19.1H1.76v-1.66H.098v1.66zm0-3.81H1.76v-1.661H.098v1.66zm0 1.905H1.76v-1.661H.098v1.66zm24.376-2.052h1.661v-1.66h-1.66v1.66zM.05 9.574h1.66v-1.66H.05v1.66zM5.422.342h-1.66v1.66h1.66V.343zM.05 7.718h1.66v-1.66H.05v1.66zm0 5.667h1.66v-1.661H.05v1.66zm0-1.905h1.66V9.819H.05v1.66zM27.942.195H26.28v1.661h1.66V.196zm5.666 0h-1.66v1.661h1.66V.196zM9.232.293h-1.66v1.661h1.66V.294zm14.9 3.713H22.47v1.66h1.66v-1.66zM11.137.293H9.477v1.661h1.66V.294zM5.764 13.385h1.661v-1.661h-1.66v1.66zM16.853.245h-1.66v1.66h1.66V.245zm-1.905.048h-1.661v1.661h1.66V.294zM1.905 3.908h1.661v-1.66h-1.66v1.66zm.049 3.761h1.66V6.01h-1.66v1.66zm1.905 7.62H5.52v-1.66H3.86v1.66zM1.905 5.814h1.661v-1.66h-1.66v1.66zm3.86 9.428h1.66V13.58h-1.66v1.66zM3.81 3.859h1.661V2.2h-1.66v1.66zm.05 9.526h1.66v-1.661H3.86v1.66zM0 5.813h1.66v-1.66H0v1.66zM2.003 19.1h1.66v-1.66h-1.66v1.66zM0 3.908h1.66v-1.66H0v1.66zm2.003 13.287h1.66v-1.661h-1.66v1.66zm-.049-7.62h1.66V7.913h-1.66v1.66zm0 5.715h1.66v-1.661h-1.66v1.66zm0-3.81h1.66V9.819h-1.66v1.66zm0 1.905h1.66v-1.661h-1.66v1.66zm7.62-.05h1.661v-1.66h-1.66v1.66zm26.232-9.622h1.661V2.052h-1.66v1.66zm.05 11.381h1.66v-1.66h-1.66v1.66zm0 3.81h1.66v-1.66h-1.66v1.66zm0-1.905h1.66v-1.66h-1.66v1.66zm-.05-7.62h1.661v-1.66h-1.66v1.66zm0-3.761h1.661V3.957h-1.66v1.66zm.05 5.666h1.66v-1.66h-1.66v1.66zM33.9 1.807h1.661V.147h-1.66v1.66zm.05 9.526h1.66v-1.66h-1.66v1.66zm0 5.666h1.66v-1.66h-1.66v1.66zm0-7.571h1.66V7.767h-1.66v1.66zm-.05-5.715h1.661V2.052h-1.66v1.66zm5.764 11.381h1.661v-1.66h-1.66v1.66zM37.712 3.713h1.66V2.052h-1.66v1.66zm-3.713 15.192h1.66v-1.661H34v1.66zm5.666-5.716h1.661v-1.66h-1.66v1.66zM37.76 17h1.661v-1.66h-1.66v1.66zm1.857-5.715h1.66v-1.66h-1.66v1.66zm0-1.905h1.66v-1.66h-1.66v1.66zm-1.857 3.81h1.661v-1.66h-1.66v1.66zm-.048-7.571h1.66V3.957h-1.66v1.66zm.048 9.476h1.661v-1.66h-1.66v1.66zm-.048-5.715h1.66v-1.66h-1.66v1.66zm0 1.905h1.66v-1.66h-1.66v1.66zM24.376 3.761h1.66v-1.66h-1.66v1.66zm2.003 15.192h1.66v-1.66h-1.66v1.66zm0-1.905h1.66v-1.66h-1.66v1.66zm0-1.905h1.66v-1.66h-1.66v1.66zm1.905 3.81h1.66v-1.66h-1.66v1.66zM26.28 3.761h1.66v-1.66h-1.66v1.66zm.049 1.906h1.66V4.006h-1.66v1.66zm-1.905 3.81h1.66V7.816h-1.66v1.66zm.048 3.81h1.661v-1.66h-1.66v1.66zm-.048-1.905h1.66V9.72h-1.66v1.66zm0-3.81h1.66V5.91h-1.66v1.66zm0-1.905h1.66V4.006h-1.66v1.66zm3.76-3.81h1.662V.194h-1.661v1.661zm3.909 17.048h1.66v-1.661h-1.66v1.66zm-.049-1.906h1.66v-1.66h-1.66v1.66zM30.091 1.856h1.66V.196h-1.66v1.66zm1.954 9.477h1.66v-1.66h-1.66v1.66zm0-1.905h1.66V7.767h-1.66v1.66zm-1.954-5.715h1.66V2.052h-1.66v1.66zm-1.905.048h1.66v-1.66h-1.66v1.66zm.098 13.287h1.66v-1.66h-1.66v1.66zm3.712-13.335h1.661V2.052h-1.66v1.66zM30.19 17.048h1.66v-1.66h-1.66v1.66zm0 1.905h1.66v-1.66h-1.66v1.66zM63.162 5.13h3.029V4.103h-2.003V3.077h1.514V2.052h-1.514V1.026h2.003V0h-3.03v5.13zM52.366.195h-2.003v.489h-.488V4.69h.488v.488h2.003V4.69h.489V.684h-.489V.195zm-.488 4.006h-1.026V1.172h1.026v3.029zM60.915.635h-.489v.489h-.488v.488h-.489V.098h-1.025l.048 5.031h1.026V3.615h.489v.488h.488v.489h.489v.488h1.026V4.054H61.5v-.488h-.488v-.489h-.489V2.052h.489v-.489h.488v-.488h.489V.049h-1.026l-.05.586zM48.068.195h-2.492l.05 5.032h1.025V3.224h1.514v-.488h.489V.733h-.489l-.097-.538zm-.489 2.003h-1.026V1.172h1.026v1.026zm7.083 2.98h2.003V4.69h.488V3.664h-1.025v.488h-1.026V1.124h1.026v.488h1.025V.586h-.488V.098h-2.003v.488h-.488v4.006h.488v.586zm12.75-4.054h1.026v4.005h1.025V1.124h1.026V.098h-3.028l-.05 1.026zM58.96 12.017h3.029V10.99h-2.003V9.965H61.5V8.94h-1.514V7.914h2.003V6.888h-3.03v5.129zm4.738-4.543h-.488v2.003h.488v.488h1.515v1.026H63.21v1.026h2.491v-.489h.489V9.526h-.489v-.489h-1.514V8.011h2.003V6.985h-2.492v.489zm-17.585.098h-.489v4.005h.489v.489h2.002v-.489h.489V9.086H47.09v1.026h.488v1.026h-1.026v-3.03h2.003V7.084h-2.491l.049.489zm10.551.44h-.489V8.5h-.488V8.01h-.489V6.985h-1.025l.049 5.032h1.025V9.526h.489v1.025h.488V9.526h.489v2.49h1.026l-.05-5.03h-1.025V8.01zm-4.25-.978h-2.003v.489h-.488l.049 4.543h1.025v-2.003h1.026v2.003h1.026l-.049-4.543h-.488l-.098-.489zm-.537 2.003h-1.026V8.011h1.026v1.026zm.537 4.592h-2.003v.488h-.488v4.006h.488v.489h2.003v-.489h.489v-4.006h-.489v-.488zm-.488 4.006H50.9v-3.03h1.026v3.03zm-5.765-3.469h-.488v2.003h.488v.489h1.515v1.025h-2.003v1.026h2.491v-.488h.489v-2.003h-.489v-.489h-1.514v-1.025h2.003v-1.026h-2.492v.488zm8.06 4.446h1.026v-2.003h1.515v-1.026h-1.515v-1.026h2.003v-1.026h-3.028v5.08zm4.25-4.055h1.026v4.006h1.026v-4.006h1.026v-1.026H58.52l-.049 1.026zM80.112.049l-1.025 2.296L78.012.098h-.684v2.98h.44V.585L78.89 3.03h.293L80.308.537V3.03h.44V.049h-.635zm-6.203.39h1.074v2.638h.44V.44h1.075V.049H73.86l.049.39z"/></svg>